<?xml version="1.0" standalone="no"?>
<!DOCTYPE svg PUBLIC "-//W3C//DTD SVG 1.1//EN" "http://www.w3.org/Graphics/SVG/1.1/DTD/svg11.dtd" >
<svg>
<metadata>
Created by FontForge 20090914 at Fri Feb 24 08:26:36 2012
 By root
&#194;&#169;1993 Colum Twomey. C&#195;&#179;d&#195;&#186; le Michael Everson. Cl&#195;&#179; saor in aisce.
</metadata>
<defs>
<font id="TuamachRegular" horiz-adv-x="297" >
  <font-face 
    font-family="Tuamach"
    font-weight="5"
    font-stretch="normal"
    units-per-em="515"
    panose-1="0 0 0 0 0 0 0 0 0 0"
    ascent="412"
    descent="-103"
    x-height="256"
    cap-height="300"
    bbox="-36 -104 576 422"
    underline-thickness="20"
    underline-position="10"
    unicode-range="U+0020-U+2265"
  />
<missing-glyph horiz-adv-x="413" 
d="M25 0v413h363v-413h-363zM363 25v363h-313v-363h313z" />
    <glyph glyph-name=".notdef" horiz-adv-x="413" 
d="M25 0v413h363v-413h-363zM363 25v363h-313v-363h313z" />
    <glyph glyph-name=".null" unicode="&#x141;" horiz-adv-x="0" 
 />
    <glyph glyph-name="nonmarkingreturn" 
 />
    <glyph glyph-name="space" unicode=" " 
 />
    <glyph glyph-name="exclam" unicode="!" horiz-adv-x="104" 
d="M55 90l-11 196v83h56v-83l-11 -196h-34zM44 1v49h56v-49h-56z" />
    <glyph glyph-name="quotedbl" unicode="&#x22;" horiz-adv-x="165" 
d="M33 235l-11 71v62h50v-62l-11 -71h-28zM119 235l-11 71v62h50v-62l-13 -71h-26z" />
    <glyph glyph-name="numbersign" unicode="#" horiz-adv-x="294" 
d="M23 0l20 105h-42v39h51l18 88h-69v39h77l23 108h37l-22 -108h81l22 108h40l-23 -108h45v-39h-54l-17 -88h71v-39h-80l-20 -105h-39l22 105h-83l-21 -105h-37zM90 144h82l18 88h-82z" />
    <glyph glyph-name="dollar" unicode="$" horiz-adv-x="264" 
d="M116 -46v44q-36 3 -56.5 15t-37.5 36q-17 28 -17 59l44 6q6 -50 30 -62.5t37 -12.5v138l-32 11q-26 10 -41 22.5t-23 34.5l-4 13l-2 12l-1 13q0 68 62 93q19 6 41 9v19h28v-19q19 0 35 -7.5t37 -27t27 -56.5l-44 -6q-6 37 -44 52l-11 3v-127q44 -7 60.5 -18.5t23.5 -21.5
l6 -8l5 -8l4 -9q4 -8 6 -17.5t2 -22.5q0 -35 -18.5 -62.5t-43 -38t-45.5 -10.5v-46h-28zM116 346q-43 -6 -55 -40l-4 -20q0 -36 30 -52l29 -11v123zM144 39q24 0 43.5 20t19.5 51q0 20 -17 36t-46 24v-131z" />
    <glyph glyph-name="percent" unicode="%" horiz-adv-x="334" 
d="M175 56q0 76 29 90t37.5 16t21.5 2q30 0 43 -15t13 -43q0 -82 -50 -106q-26 -7 -40 -7q-54 0 -54 63zM208 72q0 -60 32 -60q22 0 34 22.5t12 55.5q0 55 -35 55q-13 0 -24 -12t-16 -30zM53 223q0 -60 32 -60q34 0 43 47l3 31q0 43 -16 52l-18 4q-44 0 -44 -74zM238 297
l-38 -3l-43 -4q7 -16 7 -34q0 -52 -22 -81.5t-68 -29.5q-54 0 -54 63q0 79 28 91t39.5 15t21.5 3l26 -6q21 -3 55 -3q28 0 40.5 3.5t20.5 14.5l26 36q10 -8 30 -8q-80 -113 -139.5 -210t-91.5 -168l-23 -57q-5 4 -8 4l-10 -3l-4 -2l-3 -2h-3l37 79l25 47q67 130 151 255z
" />
    <glyph glyph-name="ampersand" unicode="&#x26;" horiz-adv-x="294" 
d="M35 245l4 42q17 0 33 -0.5t32 -0.5q35 0 78.5 12t98.5 34l-33 -431h-39l29 375q-29 -15 -67 -24t-84 -9h-28z" />
    <glyph glyph-name="quotesingle" unicode="'" horiz-adv-x="75" 
d="M33 236l-11 69v64h50v-64l-13 -69h-26z" />
    <glyph glyph-name="parenleft" unicode="(" horiz-adv-x="164" 
d="M124 -100q-78 94 -88 208l-2 33q0 66 22.5 125.5t67.5 114.5h33q-33 -53 -43.5 -76.5t-18 -51.5t-13.5 -65l-4 -47q0 -119 79 -241h-33z" />
    <glyph glyph-name="parenright" unicode=")" horiz-adv-x="159" 
d="M63 -100h-33q78 119 78 241q0 41 -8.5 80t-27.5 85l-42 75h33q43 -53 66 -117.5t23 -122.5q0 -93 -30.5 -147t-39 -66z" />
    <glyph glyph-name="asterisk" unicode="*" horiz-adv-x="197" 
d="M16 299l11 35l61 -24l-5 63h39l-7 -63q35 17 61 24l12 -35q-29 -11 -65 -16q13 -9 45 -47l-31 -21l-16 23l-20 32q-17 -33 -35 -55l-30 21q7 9 22.5 26t19.5 21q-33 6 -62 16z" />
    <glyph glyph-name="plus" unicode="+" horiz-adv-x="290" 
d="M130 57v103h-103v44h103v103h44v-103h103v-44h-103v-103h-44z" />
    <glyph glyph-name="comma" unicode="," horiz-adv-x="101" 
d="M47 1v49h50v-49q0 -42 -22 -60l-17 -11l-11 19l11 10q6 4 10 22l2 20h-23z" />
    <glyph glyph-name="hyphen" unicode="-" horiz-adv-x="169" 
d="M20 114v44h141v-44h-141z" />
    <glyph glyph-name="hyphen" unicode="&#xad;" horiz-adv-x="169" 
d="M20 114v44h141v-44h-141z" />
    <glyph glyph-name="period" unicode="." horiz-adv-x="101" 
d="M47 0v49h50v-49h-50z" />
    <glyph glyph-name="slash" unicode="/" horiz-adv-x="154" 
d="M0 -4l107 378h40l-109 -378h-38z" />
    <glyph glyph-name="zero" unicode="0" horiz-adv-x="276" 
d="M22 183q0 67 11.5 103t40 59.5t68.5 23.5q56 0 79 -32.5t32.5 -64t9.5 -89.5q0 -31 -4 -57t-15.5 -55.5t-35.5 -49.5t-66 -20q-55 0 -87.5 40t-32.5 142zM66 183q0 -91 21.5 -119t54.5 -28q34 0 55 30t21 117q0 89 -23 118q-21 30 -54 30q-75 0 -75 -148z" />
    <glyph glyph-name="one" unicode="1" horiz-adv-x="165" 
d="M158 1h-44v287q-22 -18 -46.5 -33t-45.5 -22v44q48 20 74.5 49t32.5 43h29v-368z" />
    <glyph glyph-name="two" unicode="2" horiz-adv-x="267" 
d="M254 43v-43h-240q0 30 15.5 54.5t33 43t44.5 37.5q61 55 74.5 72.5t19.5 31.5t6 28q0 28 -21 45t-49 17q-33 0 -53.5 -20t-20.5 -55l-44 6q0 38 18.5 63t42 32.5t33.5 9.5t24 2q63 0 97 -44q10 -17 16 -37l1 -20q0 -24 -7 -43t-30.5 -46.5t-66.5 -63.5l-52 -46l-23 -24
h182z" />
    <glyph glyph-name="three" unicode="3" horiz-adv-x="278" 
d="M23 102l44 6q4 -35 24 -52t50 -17q54 0 66.5 29.5t12.5 44.5q0 28 -22 48.5t-53 20.5q-14 0 -33 -4l6 38l4 -1q33 0 55.5 15.5t22.5 46.5q0 23 -17.5 40t-44.5 17q-59 0 -68 -66l-44 6q8 44 38 69.5t73 25.5t66 -20q15 -8 23 -20.5t13 -26.5t5 -27q0 -48 -51 -74
q30 -6 51 -30t21 -58q0 -46 -36 -79q-33 -33 -89 -33q-51 0 -81 27t-36 74z" />
    <glyph glyph-name="four" unicode="4" horiz-adv-x="278" 
d="M170 0v88h-163v42l172 237h35v-237h51v-42h-51v-88h-44zM170 130v163l-119 -163h119z" />
    <glyph glyph-name="five" unicode="5" horiz-adv-x="278" 
d="M23 103l44 3q7 -70 73 -70q34 0 57 24.5t23 62.5q0 57 -30.5 69.5t-49.5 12.5q-49 0 -67 -31l-44 6l38 188h177v-44h-140l-22 -101q38 26 69 26q49 0 81.5 -35.5t32.5 -83.5q0 -39 -18.5 -70.5t-48 -45.5t-58.5 -14q-52 0 -82.5 27.5t-34.5 75.5z" />
    <glyph glyph-name="six" unicode="6" horiz-adv-x="279" 
d="M261 279l-46 -2q-5 21 -17 38q-22 19 -46 19q-21 0 -53.5 -23t-32.5 -119q13 23 33 32.5t31.5 12.5t24.5 3q44 0 77.5 -32.5t33.5 -83.5q0 -25 -10 -50t-24 -39q-28 -34 -83 -34q-40 0 -75 24q-30 24 -41 63.5t-11 86.5q0 95 37 144.5t96 49.5q42 0 68.5 -23t37.5 -67z
M71 121q0 -32 23.5 -58.5t53.5 -26.5q28 0 50.5 21.5t22.5 60.5q0 35 -21 57t-53 22q-29 0 -52.5 -21t-23.5 -55z" />
    <glyph glyph-name="seven" unicode="7" horiz-adv-x="275" 
d="M23 324v45h239v-37q-37 -39 -72 -104t-48.5 -113t-17 -70t-3.5 -45h-45q0 79 30 153.5t64 125.5l33 45h-180z" />
    <glyph glyph-name="eight" unicode="8" horiz-adv-x="268" 
d="M83 199q-27 9 -39.5 27.5t-12.5 47.5q0 38 27 68q30 27 77 27q49 0 77.5 -27.5t28.5 -68.5q0 -47 -40 -68l-12 -6q30 -9 48 -36q18 -24 18 -56q0 -35 -19 -63t-47 -37.5t-53 -9.5q-55 0 -90 33q-29 31 -29 77q0 35 17 59t49 33zM75 277q0 -26 15.5 -43t45.5 -17
q28 0 44.5 15.5t16.5 41.5q0 51 -61 60q-41 0 -57 -36zM61 107q0 -29 13 -46l6 -8q19 -18 56 -22q35 0 50 16.5t20 28.5t5 29q0 33 -21.5 54.5t-54.5 21.5t-53 -21q-21 -18 -21 -53z" />
    <glyph glyph-name="nine" unicode="9" horiz-adv-x="278" 
d="M29 91l44 3q7 -58 61 -58q32 0 45.5 13.5t27 43t13.5 74.5v10q-33 -48 -89 -48q-33 0 -60.5 19t-37.5 45.5t-10 52.5q0 56 33 89.5t82 33.5q39 0 66.5 -19.5t44 -56t16.5 -99.5q0 -96 -34.5 -144.5t-99.5 -48.5q-46 0 -69 23q-29 23 -33 67zM214 250q0 35 -20.5 58
t-51.5 23q-29 0 -52 -23.5t-23 -61.5q0 -18 4 -29t21.5 -27.5t48.5 -16.5q32 0 52.5 21.5t20.5 55.5z" />
    <glyph glyph-name="colon" unicode=":" horiz-adv-x="101" 
d="M47 221v51h50v-51h-50zM47 3v49h50v-49h-50z" />
    <glyph glyph-name="semicolon" unicode=";" horiz-adv-x="103" 
d="M49 221v50h50v-50h-50zM49 2v50h50v-50q0 -53 -39 -70l-11 19q6 1 10 7l4 4l8 21l1 19h-23z" />
    <glyph glyph-name="less" unicode="&#x3c;" horiz-adv-x="283" 
d="M26 164v36l244 105v-44l-194 -79l194 -78v-45z" />
    <glyph glyph-name="equal" unicode="=" horiz-adv-x="287" 
d="M274 223h-244v45h244v-45zM274 111h-244v44h244v-44z" />
    <glyph glyph-name="greater" unicode="&#x3e;" horiz-adv-x="287" 
d="M274 164l-244 -105v45l193 78l-193 79v44l244 -105v-36z" />
    <glyph glyph-name="question" unicode="?" horiz-adv-x="277" 
d="M117 90l-1 7l-1 5q0 27 12 53l4 8l6 7l6 8l55 49q14 14 18 28l2 15q0 27 -21.5 46.5t-53.5 22.5q-46 0 -68 -44q-6 -15 -9 -34l-44 6q0 52 37 78q31 29 84 29t86.5 -29.5t33.5 -72.5q3 -31 -30 -67l-47 -44l-10 -11l-7 -11q-8 -16 -8 -49h-44zM111 1v49h50v-49h-50z" />
    <glyph glyph-name="at" unicode="@" horiz-adv-x="523" 
d="M289 49q-17 -18 -39.5 -29.5t-38.5 -11.5q-53 0 -72 42.5t-19 69.5q0 40 20 79t49 61t59 22q52 0 77 -47l11 42h44l-40 -169l-7 -40q0 -11 10 -14l8 -2l16 4l10 4q38 22 57 58.5t19 70.5q0 68 -51 109q-48 48 -132 48q-56 0 -105 -27t-77.5 -78t-28.5 -112
q0 -110 54.5 -143.5t93.5 -41t70 -7.5q66 0 108.5 21.5t69.5 57.5h44q-10 -24 -61.5 -69.5t-160.5 -45.5q-31 0 -55 3t-65 15.5t-79 54t-50 97.5q-4 25 -4.5 35.5t-0.5 17.5q0 66 30.5 125t84 95.5t135.5 36.5q131 0 173 -72t42 -123q0 -70 -48.5 -124t-103.5 -54
q-24 0 -31 7q-4 2 -5 4l-4 4l-5 13zM164 116q0 -32 15 -53q19 -19 39 -19q12 0 29.5 8.5t28 22t17 24.5t12.5 27.5t6 43.5q0 34 -16 54q-19 19 -44 19q-18 0 -44 -19l-7 -7q-18 -18 -27 -53l-4 -12z" />
    <glyph glyph-name="A" unicode="A" horiz-adv-x="391" 
d="M267 108l-36 66l-13 23l-35 65l-43 -74l-13 -22l-26 -43q-2 -15 13 -47l10 -14q22 -31 49 -31q19 0 28.5 6t20 15t28.5 31zM0 0l51 81l15 25l12.5 21.5t19.5 29.5l16 26l72 117l21 1l18 -33l22 -40l59 -104l45 -85l22 -39h-42l-6 11l-6 10l-44 74q-20 -35 -47.5 -61
t-54.5 -26q-42 0 -72 26l-10 10l-11 8q-6 6 -19 8l-39 -60h-22z" />
    <glyph glyph-name="B" unicode="B" horiz-adv-x="344" 
d="M65 142v21v75l1 27v24v40q0 14 -9 20l-8 1l-16 -3l-10 -2l-3 1l1 6q39 20 39 44l-1 8v6q4 5 7 5q19 0 31 -18q15 -14 15 -45v-24l-1 -12v-46l4 -1l21 17q25 14 70 14q49 0 85.5 -46t36.5 -106q0 -44 -22 -80.5t-59 -55.5q-29 -12 -47 -12q-55 0 -95 39t-40 103zM113 150
q0 -59 22.5 -94t62.5 -35q26 4 55.5 39t29.5 85q0 42 -16 73.5t-37 47.5q-18 9 -34 9q-23 0 -44 -22q-20 -18 -26.5 -39t-9.5 -33.5t-3 -30.5z" />
    <glyph glyph-name="C" unicode="C" horiz-adv-x="291" 
d="M25 161q0 46 28.5 85t73.5 51l31 4q82 0 113 -69l4 -14l-7 -4l-8 -4q-8 -2 -16 -7l-9 -4l-6 -2l-1 17q0 11 -2 17l-2 16q-4 18 -15 29q-12 9 -45 14q-41 0 -67.5 -36t-26.5 -85l1 -15v-20q0 -54 25 -83t69 -29q33 0 59 17q17 13 24.5 33t7.5 33h22q-19 -65 -73 -91
q-20 -8 -47 -13q-49 0 -80 28q-24 16 -38.5 51t-14.5 81z" />
    <glyph glyph-name="D" unicode="D" horiz-adv-x="342" 
d="M64 144q0 38 10 59t31 50l2 6l-4 1q-8 0 -21 -7l-11 -8l-12 -8q-28 -23 -51 -28l-3 5q6 7 10 11l18 16q7 9 7 19q0 15 -16 26l-6 4q-5 3 -8 10v7l5 3h5l28 -10q22 -6 44 -9h31l48 6q78 0 116.5 -42t38.5 -110q0 -52 -21.5 -86.5t-47.5 -44.5t-31 -11t-31 -5q-41 0 -86 37
t-45 109zM282 145q0 50 -30 96q-23 32 -56 32q-50 0 -75 -73l-9 -40v-15q0 -36 19.5 -81t62.5 -45q27 0 45.5 17.5t31.5 54.5z" />
    <glyph glyph-name="E" unicode="E" horiz-adv-x="342" 
d="M22 146q0 28 8.5 53t33 63.5t89.5 38.5q47 0 89.5 -42t42.5 -96l10 1h22l9 -1v-18h-257q0 -63 27 -94q24 -31 66 -31q85 0 97 84h15h5q-15 -48 -42 -76t-81 -28q-36 0 -65.5 18.5t-48.5 51.5q-15 31 -20 76zM238 163q0 58 -48 102q-12 8 -33 11q-64 0 -87 -108l-1 -5h169
z" />
    <glyph glyph-name="F" unicode="F" horiz-adv-x="273" 
d="M55 -101v314q0 20 -15 22l-25 -6l-4 1l1 5q40 22 40 45v14q4 5 8 5q14 0 29 -16q12 -15 12 -36v-22l100 74q9 0 19.5 -10.5t18.5 -29.5l8 -17l14 -39l-17 -11l-11 -7l-9 -6l-14 45l-6 14q-16 22 -23 23l-41 -31l-11 -8l-28 -20v-125h113v-34h-113v-144h-46z" />
    <glyph glyph-name="G" unicode="G" horiz-adv-x="296" 
d="M66 158q0 38 40 64l25 16q12 8 12 22h-132v39h271v-38q-164 0 -164 -95q0 -26 16 -33.5t66 -15.5l30 -7q27 -11 39 -27.5t12 -47.5q0 -53 -21.5 -77.5t-29 -30.5t-25 -16.5t-39.5 -10.5q-16 0 -29.5 5.5t-28.5 18.5l-10 6q-15 12 -34 15h-13l-23 -3l-20 -4q-6 0 -8 6
q0 9 24 23l18 19l4 14l1 12l-3 25l-1 10v9q1 5 9 7q8 0 15 -35.5t17 -59t32.5 -35t41.5 -11.5q35 0 65 37q18 26 18 53q0 12 -1 19.5t-6 14.5q-9 24 -47 33l-16 4q-76 11 -89 31t-16 44z" />
    <glyph glyph-name="H" unicode="H" horiz-adv-x="323" 
d="M58 0v329q0 19 -17 19l-26 -6l-3 1l1 5q39 21 39 46l-1 8v6q4 5 7 5q18 0 31.5 -16.5t13.5 -35.5v-21l1 -21v-116l54 45l64 52q59 0 86 -53v-247h-46v214q0 35 -55 53l-40 -33l-40 -32l-23 -22v-180h-46z" />
    <glyph glyph-name="I" unicode="I" horiz-adv-x="124" 
d="M73 0v214q0 22 -17 22q-11 0 -24 -5l-3 1l1 5q38 18 38 45l-1 7l-1 6q4 5 8 5q17 0 31 -16.5t14 -38.5v-245h-46z" />
    <glyph glyph-name="J" unicode="J" horiz-adv-x="124" 
d="M74 1l-1 215q0 21 -17 21l-13 -2l-11 -2l-2 5q40 24 37 45v7l-1 6q4 5 8 5q16 0 30 -17q15 -15 15 -37v-246q0 -39 -24.5 -64.5t-53.5 -32.5h-13q-9 0 -11 6q0 1 1.5 3.5t6.5 6.5l17 10l11 11q21 21 21 60z" />
    <glyph glyph-name="K" unicode="K" horiz-adv-x="322" 
d="M56 0v330q0 20 -17 20l-18 -4l-7 -2l-4 1l2 5q39 18 39 45l-1 7l-1 7q4 5 8 6q14 0 29.5 -16t15.5 -37v-158q40 0 83.5 22t59.5 42.5t18 32.5l21 -1h22q0 -17 -34.5 -50.5t-67.5 -47.5l-12 -3q57 0 86 -51t29 -148h-44q0 56 -8.5 88.5t-29.5 56t-78 23.5h-45v-168h-46z
" />
    <glyph glyph-name="L" unicode="L" horiz-adv-x="284" 
d="M59 82v39l1 30v144q0 37 -3.5 44.5t-14.5 8.5l-17 -3l-8 -2l-4 1l1 5q40 18 40 45v8l-1 6q4 5 8 5q13 0 28.5 -17t15.5 -35v-261q0 -28 18 -48q17 -16 53 -16q35 0 53 21l8 12l13 24q4 7 12 8q8 0 8 -16q-3 -21 -21 -43q-20 -27 -49 -39l-27 -4q-47 0 -80.5 25t-33.5 58z
" />
    <glyph glyph-name="M" unicode="M" horiz-adv-x="451" 
d="M59 213q0 25 -16 22l-14 -2l-12 -2l-4 1l2 5q38 21 38 45v8l-1 6q4 5 7 5q16 0 31 -18t15 -35v-21l-1 -5q30 21 50.5 38.5t41.5 37.5l3 3l14 -4l13 -4q15 -4 27 -18q12 -10 15 -32v-20l85 69l8 7q60 -12 69 -57l-2 -24v-63v-132q0 -16 2 -23h-46v214q-3 34 -41 50
q-10 -6 -40 -33l-35 -31v-106l1 -32l-1 -28v-34h-46v214q0 15 -7 26t-33 25l-31 -26l-8 -6l-39 -33l1 -14v-186h-46v213z" />
    <glyph glyph-name="N" unicode="N" horiz-adv-x="279" 
d="M56 215q0 13 -3 16.5t-14 4.5l-16 -3l-9 -2l-4 1l1 6q40 18 40 44q0 9 -2 14q4 5 7 5q16 0 30.5 -15.5t14.5 -36.5v-10l1 -5v-13q15 11 31.5 25l41.5 37q14 9 21 18q60 -12 70 -56v-225l-1 -20h-46v214q0 20 -10 30q-5 8 -31 20l-38 -33l-7 -7l-31 -24v-199l-46 -1v215z
" />
    <glyph glyph-name="O" unicode="O" 
d="M152 298q53 0 92 -45t39 -107q0 -54 -27 -92q-26 -41 -78 -53l-26 -2q-55 0 -93 42.5t-38 104.5q0 44 17.5 73.5t31.5 43.5t34 24.5t48 10.5zM152 273q-41 0 -71 -57q-14 -39 -14 -71q0 -50 24 -85q25 -40 60 -40q43 0 64.5 39t21.5 86q0 53 -28 90.5t-57 37.5z" />
    <glyph glyph-name="P" unicode="P" horiz-adv-x="324" 
d="M56 -99v313q0 20 -17 20l-15 -3l-10 -2l-4 1l1 6q39 18 39 44v8l-1 6q4 5 8 5q25 0 41 -34l3 -18l1 -4v-8l21 28l12 10q31 25 60 25q49 0 81.5 -47t32.5 -104q0 -45 -24 -87t-60 -54l-17 -3q-10 -2 -18 1l-12 6l-10 2h-17l-13 -2q-8 0 -8 7l11 15q3 6 5 24l3 21l4 8
l8 -24q9 -27 26 -38l14 -4q21 3 32.5 11t18.5 28.5t9 41.5t2 50q0 68 -20 99q-16 31 -51 31q-43 0 -66 -36q-20 -27 -24 -68v-18v-226l-1 -31h-45z" />
    <glyph glyph-name="Q" unicode="Q" horiz-adv-x="292" 
d="M279 -100h-46v243l-1 16v18q0 17 -6.5 34.5t-25 44t-59.5 26.5q-35 0 -51 -30q-20 -31 -20 -101q0 -79 15 -106q13 -20 47 -26q11 0 28 12l20 12l14 8l4 -4q0 -17 -21 -32.5t-52 -15.5q-33 0 -69 46q-33 47 -33 103q0 51 19 84t35 45.5t38 19.5l23 4q57 -6 94 -63v62h47
v-400z" />
    <glyph glyph-name="R" unicode="R" horiz-adv-x="346" 
d="M59 214q0 21 -16 21l-14 -3l-12 -2l-4 1l1 6q39 18 39 44l-1 8v6q4 5 7 5q7 0 17 -5l8 -6l8 -7l6 -8q6 -12 8 -27v-28q0 26 31 54q32 26 71 26q26 0 51 -28q22 -30 22 -56q0 -47 -30 -68q-7 -7 -23 -13l-16 -5h6h8q39 -9 43 -27v-40l2 -14q6 -21 25 -21l23 9h4q6 -3 7 -8
v-7l-2 -2l-16 -10q-18 -9 -31 -9q-45 0 -45 51q0 40 -14.5 50t-31 13.5t-40.5 3.5v11q90 0 90 89q0 18 -12.5 30t-35.5 15q-30 0 -50.5 -16.5t-30.5 -46.5l-5 -26v-82l-1 -18v-74h-46v214z" />
    <glyph glyph-name="S" unicode="S" horiz-adv-x="291" 
d="M30 215q0 43 36.5 61.5t64.5 21.5h25l53 -10h23q14 0 24 5l15 4q5 -4 7 -8q-10 -8 -22.5 -22.5t-16.5 -24.5v-15l2 -9v-10l-9 -8q-6 0 -6 16l-2 8q0 8 -5 18q0 6 -10 19l-8 8q-15 12 -42 15h-20q-67 -6 -67 -65q0 -38 55 -50l38 -3h22q20 0 34.5 -5t33.5 -20t19 -62
q0 -35 -15 -55q-14 -15 -46 -23l-54 -2q-30 0 -75 18l-13 6l-14 4q-11 -2 -27 -11l-22 -11h-5l-1 4l10 9l19 20q9 12 13 26v21q0 13 -5 26q1 3 3 4t3 2l9 -25q8 -29 32 -52t67 -23q33 0 53.5 20t20.5 51q0 10 -3 19.5t-21 22.5t-56 13q-58 0 -87.5 18t-29.5 54z" />
    <glyph glyph-name="T" unicode="T" horiz-adv-x="298" 
d="M25 146q0 76 72 118h-97v36l283 1l1 -36h-94q-44 0 -74 -30t-42 -72l-3 -21q0 -28 7 -51.5t24 -47.5t67 -24q40 0 60.5 19.5t30.5 64.5h20q-33 -103 -123 -103q-112 0 -130 121z" />
    <glyph glyph-name="U" unicode="U" 
d="M56 215q0 24 -17 21l-9 -1l-9 -2l-7 -1l-4 1l1 5q38 20 38 44v8l-1 5q4 5 7 6q16 -2 31 -17.5t15 -33.5l1 -38v-35l-1 -35l1 -37q5 -25 19 -45t29 -23l70 52l18 13l-1 15v38l1 13v47q0 16 -18 16q-13 0 -19 -2h-7l-4 2l2 6q40 23 40 45v7l-1 6q4 5 7 6l8 -2
q15 -3 25.5 -18t11.5 -31v-250h-45v80l-78 -58l-31 -22q-39 9 -66 54q-5 14 -7 26v135z" />
    <glyph glyph-name="V" unicode="V" horiz-adv-x="300" 
d="M44 232q-1 3 -12 5l-16 -4l-13 -3l-2 2l2 6q38 21 38 44l-1 7l-1 6q4 5 7 6q15 -2 24 -22l20 -40q1 -8 33 -82l37 -92l27 79l12 34l24 69l10 30l7 24h46l-102 -301h-41l-25 61l-25 60z" />
    <glyph glyph-name="W" unicode="W" horiz-adv-x="488" 
d="M239 80q-32 -21 -110 -80q-39 9 -66 54q-5 14 -7 26v135q0 24 -17 21l-9 -1l-9 -2l-7 -1l-4 1l1 5q38 20 38 44v8l-1 5q4 5 7 6q16 -2 31 -17.5t15 -33.5l1 -38v-35l-1 -35l1 -37q5 -25 19 -45t29 -23l87 65l1 56v56q0 22 -17 22l-9 -2l-9 -2l-7 -1l-4 1l1 5q38 20 38 45
v7l-1 6q4 5 7 5q12 0 23 -9.5t15 -17.5t5.5 -12.5t2.5 -11.5v-145q7 -31 21 -49t28 -18l47 34q10 7 23.5 18t16.5 13v112q0 16 -18 16q-12 0 -19 -2h-7l-3 3l2 6q40 20 40 44l-1 8v6q4 5 7 5q12 0 28.5 -18t16.5 -33v-250l-45 1l-1 7v72l-108 -79q-18 0 -40 22.5t-30 44.5z
" />
    <glyph glyph-name="X" unicode="X" horiz-adv-x="360" 
d="M2 -89q35 31 62 80l11 25l62 141l-28 53l-10 14q-25 33 -38 30q-21 0 -38 -13q-5 -2 -9 -7l-5 -5l-8 6l11 23l17 23l10 10q11 7 24 10q30 -3 46 -21t39 -58l10 -18l20 32q15 24 35 44t36 21q20 0 38 -14l12 -12l14 -10l-4 -9l-6 -8l-5 -8l-4 -8l-17 16l-10 8q-5 4 -15 4
q-23 0 -52 -55l-8 -16l-11 -28q11 -33 36 -72q25 -43 46 -52l12 -4q16 0 33 13l21 18l7 1l5 -3l2 -6q-3 -15 -26.5 -33.5t-43.5 -21.5q-21 0 -47 20q-24 21 -46 56l-21 38l-43 -107q-4 -10 -11 -22.5t-24.5 -33.5t-35.5 -36t-35 -18l-8 3v10z" />
    <glyph glyph-name="Y" unicode="Y" 
d="M56 214q0 21 -16 21l-19 -3l-7 -2l-3 1l1 6q38 18 38 44l-1 7v6q4 5 7 5q15 0 30.5 -17t15.5 -34v-144q6 -28 19.5 -46.5t28.5 -21.5l70 52l18 13v113q0 8 -6 13l-12 3l-19 -2h-7l-3 2l2 6q40 20 40 45l-1 7v6q4 5 7 5q16 0 30 -17l6 -8q6 -9 8 -25l-1 -252
q0 -21 -10.5 -38t-46 -37.5t-86.5 -20.5q-20 0 -38.5 7t-53 31t-34.5 48q0 8 6 10q5 -2 26 -33t77 -31h20q32 0 46 5q35 9 42.5 29t7.5 33v79l-24 -18l-84 -61q-20 0 -39.5 18t-32.5 48l-2 13v135z" />
    <glyph glyph-name="Z" unicode="Z" horiz-adv-x="338" 
d="M1 301h261v-45l-184 -200l49 10h12q9 0 34.5 -7t43.5 -9t34 -2q30 0 48 12l23 -42l-24 -8l-12 -4l-28 -6q-31 0 -58 10t-55 13h-26q-23 0 -77 -11l-22 -6l-20 -6v35l6 5l8 8q5 7 18.5 22t33.5 35l61 68l59 64l10 10l6 7h-201v47z" />
    <glyph glyph-name="bracketleft" unicode="[" horiz-adv-x="138" 
d="M34 -101v470h98v-39h-54v-392h54v-39h-98z" />
    <glyph glyph-name="backslash" unicode="\" horiz-adv-x="153" 
d="M108 -2l-108 378h37l109 -378h-38z" />
    <glyph glyph-name="bracketright" unicode="]" horiz-adv-x="115" 
d="M110 -101h-98v39h53v392h-53v39h98v-470z" />
    <glyph glyph-name="asciicircum" unicode="^" horiz-adv-x="241" 
d="M63 175h-49l89 199h38l89 -199h-50l-58 150z" />
    <glyph glyph-name="underscore" unicode="_" horiz-adv-x="310" 
d="M0 -100v31h296v-31h-296z" />
    <glyph glyph-name="grave" unicode="`" horiz-adv-x="120" 
d="M115 300h-34l-58 69h61z" />
    <glyph glyph-name="a" unicode="a" horiz-adv-x="335" 
d="M229 93l-42 76l-30 55l-48 -81l-24 -38q0 -27 22 -52q14 -18 25 -22.5t17 -4.5l7 1l16 4q25 12 57 62zM0 0l44 70l14 24t12 19l14 22l76 123h17l4 -6l5 -10q30 -60 51.5 -98.5l78.5 -135.5l4 -8h-35l-49 80l-17 -25l-10 -12q-30 -36 -60 -36q-34 0 -62 22l-10 9
q-16 11 -25 13l-33 -51h-19z" />
    <glyph glyph-name="b" unicode="b" horiz-adv-x="300" 
d="M57 123l1 18v144q0 11 -7 17l-7 1l-14 -2l-8 -2l-4 1l1 5q34 15 34 38v7l-1 5q4 5 7 5q11 0 24 -14.5t15 -31.5v-75v-6l14 7q10 8 20.5 11.5t24 6t23.5 2.5q38 0 72 -39.5t34 -92.5q0 -22 -11.5 -51.5t-40.5 -53t-60 -23.5q-45 0 -71.5 26t-36 47t-9.5 50zM99 130
q0 -42 15 -72q16 -27 46 -38l12 -1q12 0 28.5 10.5t28.5 32t15 41.5l2 22q0 49 -23 81q-20 32 -52 32q-11 0 -25 -9q-47 -25 -47 -99z" />
    <glyph glyph-name="c" unicode="c" horiz-adv-x="251" 
d="M24 138q0 43 30 81.5t84 38.5q65 0 91 -48l9 -24q-12 -3 -22.5 -8.5t-13 -7.5t-3.5 -2v18q-3 16 -4 25l-4 12q-14 24 -47 24q-49 0 -73 -58l-8 -44v-13q0 -53 17 -79q19 -34 65 -34q34 0 53 21t25 50h17q-24 -79 -101 -89q-52 0 -83.5 38t-31.5 99z" />
    <glyph glyph-name="d" unicode="d" horiz-adv-x="296" 
d="M55 125q0 19 7 41t22 46q6 5 8 12q-14 0 -38 -17l-37 -23l-11 -3l-2 4q0 6 5 9l6 4q19 13 19 26q0 11 -8 19l-6 4l-7 4l-5 9v6l4 3h5l6 -3l18 -7q9 -3 14 -4t23 -4h28l42 7q35 0 60.5 -9t49.5 -37t24 -87q0 -87 -78 -120q-10 -3 -17.5 -5t-17.5 -2q-38 0 -76 33t-38 94z
M243 125q0 18 -3 34.5t-17 46t-54 29.5q-28 0 -44.5 -24.5t-25.5 -55.5l-3 -30l4 -29l4 -19q9 -28 21.5 -44.5t42.5 -16.5q28 0 44 21.5t20.5 36.5t7.5 30.5t3 20.5z" />
    <glyph glyph-name="e" unicode="e" 
d="M22 125q3 32 19 67.5t42 50.5t51 15q57 0 80 -35.5t28 -50.5t5 -32h36v-16h-221q0 -38 12.5 -64t31.5 -34.5t37 -8.5q36 0 55 15.5t27 56.5h17q-26 -89 -105 -89q-51 0 -80.5 37t-34.5 88zM208 140l-2 16q0 8 -4 16l-6 16l-18 28l-12 10q-15 9 -28 9q-32 0 -47.5 -23
t-27.5 -68v-4h145z" />
    <glyph glyph-name="f" unicode="f" horiz-adv-x="242" 
d="M49 -99v279q0 20 -14 19l-13 -2l-9 -2l-3 1l1 4q30 17 36 39l-1 7v5q1 4 8 5q9 0 17.5 -9t13.5 -18.5t5 -18.5v-19l23 16l23 17l43 32q14 0 34 -36q18 -36 18 -49l-14 -10l-10 -6l-8 -5l-8 28l-4 12l-6 12q-9 19 -20 20l-8 -6l-56 -41l-7 -5v-110h101v-31h-101v-128h-41z
" />
    <glyph glyph-name="g" unicode="g" horiz-adv-x="266" 
d="M60 131q0 23 18 41l33 24q18 12 18 26h-119v36h243v-35q-106 0 -137 -46q-10 -17 -10 -38q0 -19 13 -29q13 -7 47 -13q48 -6 61 -16q24 -15 24 -60t-30.5 -83t-71.5 -38q-15 0 -24 5l-20 12l-21 13q-7 4 -12.5 6.5t-14.5 4.5h-11q-21 -3 -28 -4.5t-11 -2.5q-5 0 -7 6
q0 5 9 13l6 4q12 3 19.5 13.5t7.5 30.5l-2 16l-1 15v8q0 6 8 6q7 0 12 -21l10 -41q6 -27 23.5 -45.5t49.5 -18.5q39 0 67 48q8 16 8 33q0 23 -14 41l-10 8l-12 6l-34 10l-36 7l-27 10l-10 9q-14 14 -14 39z" />
    <glyph glyph-name="h" unicode="h" horiz-adv-x="277" 
d="M50 0v288q0 12 -8 15l-7 1l-11 -2l-11 -2l-1 5q16 8 24.5 19.5t8.5 18.5l-1 7v5q4 5 6 5q11 0 24.5 -14.5t14.5 -29.5v-143q15 15 64 52l38 31q49 0 73 -44v-212h-40v183q0 20 -30 38l-16 6l-10 -7l-12 -10l-60 -50l-7 -6v-154h-39z" />
    <glyph glyph-name="i" unicode="i" horiz-adv-x="110" 
d="M66 0v184q0 17 -15 19l-11 -2l-10 -2l-3 1l2 4q32 15 32 38l-1 6v5q4 4 6 5q17 0 27 -14.5t12 -32.5v-211h-39z" />
    <glyph glyph-name="j" unicode="j" horiz-adv-x="113" 
d="M67 -9l-1 192q0 20 -15 20q-8 0 -22 -5l-1 5q33 18 33 39v7l-1 5q0 5 7 6q8 0 20 -9.5t16 -21.5l4 -18v-220q0 -40 -21 -61t-48 -27h-12q-9 0 -10 5l17 15q16 11 25 26t9 42z" />
    <glyph glyph-name="k" unicode="k" horiz-adv-x="278" 
d="M48 0l1 33v253q0 15 -15 17l-11 -3l-11 -2l-3 1l2 4q33 20 33 39l-1 7v5q4 5 6 5q13 0 26 -14.5t13 -30.5v-18l1 -19v-57l-1 -17v-27q51 0 94 29.5t43 53.5h39q0 -24 -40.5 -56t-58.5 -32q39 0 66 -35t33 -107v-29h-39q0 91 -27 121q-27 24 -110 24v-145h-40z" />
    <glyph glyph-name="l" unicode="l" horiz-adv-x="247" 
d="M52 71v13v200q0 17 -15 19l-8 -1l-8 -2q-5 -1 -6 -2l-3 1l1 5q34 19 34 39v7v5q4 5 6 5q11 0 25 -14.5t14 -31.5v-229q0 -25 15 -39.5t47 -14.5q34 0 50 20l13 27q3 10 11 10q7 0 7 -16q0 -17 -24 -45t-59 -28q-42 0 -69.5 20t-30.5 52z" />
    <glyph glyph-name="m" unicode="m" horiz-adv-x="386" 
d="M51 183q0 18 -14 19l-8 -1l-8 -2l-6 -1l-3 1l1 5q21 9 29 20l4 17l-1 7v5q4 4 6 5q9 0 21 -10l15 -20l4 -15v-14l-1 -4v-5l25 20l13 11l41 34l2 3l24 -5q13 -2 21.5 -11t12.5 -34v-17q38 22 81 65q27 -6 36 -13q18 -10 22 -35v-208h-38v183q-3 30 -36 42l-5 -4l-7 -7
l-10 -7l-9 -9l-11 -8l-23 -19v-15l1 -22v-26v-97l-1 -11h-38v183q-1 14 -8 24.5t-27 18.5l-10 -8l-30 -24l-7 -7l-19 -15v-74l1 -26v-25v-47h-40v183z" />
    <glyph glyph-name="n" unicode="n" horiz-adv-x="238" 
d="M48 185q0 18 -14 17l-14 -2l-8 -2l-3 1l1 5q34 15 34 38l-1 6l-1 5q4 4 6 5q17 0 26.5 -12t12.5 -32v-24q34 22 63 52l16 13l2 3q27 -4 41 -16q14 -9 18 -32v-210h-39v184q-2 17 -7.5 25t-27.5 17l-19 -15l-7 -7l-6 -6l-34 -26v-171l-39 -1v185z" />
    <glyph glyph-name="o" unicode="o" horiz-adv-x="260" 
d="M134 258q72 0 92.5 -52.5t20.5 -79.5q0 -53 -33 -90t-80 -37q-39 0 -69.5 28t-40.5 74l-3 25q0 45 33.5 88.5t79.5 43.5zM134 235q-9 0 -14 -1.5t-14 -6.5l-12 -10q-33 -36 -33 -91q0 -24 9.5 -49.5t22.5 -41.5q21 -18 41 -18q16 0 29 8l12 10q12 12 22.5 39.5t10.5 51.5
q0 68 -45 101q-12 6 -29 8z" />
    <glyph glyph-name="p" unicode="p" horiz-adv-x="290" 
d="M50 -99v281q0 18 -15 18l-8 -1l-8 -2l-7 -1l-3 1l1 5q35 15 35 39l-1 6v6q4 4 7 5q12 0 25.5 -16t14.5 -30v-11l11 15l9 9q30 30 64 33q38 0 70 -41t32 -95q0 -44 -20.5 -76.5t-53.5 -44.5l-15 -1h-11l-12 4l-12 4l-28 -3q-7 0 -7 7q12 12 12 22l2 6l3 26l3 6
q5 -7 8.5 -20t11.5 -25.5t24 -12.5q24 0 33 9.5t14 26t5 44.5l1 30q0 63 -15.5 89.5t-46.5 26.5q-39 0 -60.5 -36.5t-21.5 -72.5v-230h-41z" />
    <glyph glyph-name="q" unicode="q" horiz-adv-x="264" 
d="M251 -100h-41l1 28v136v53l-1 14v16q-9 75 -60 90l-21 4q-30 0 -47 -26q-17 -31 -17 -91q0 -63 8 -82q9 -17 34 -22l14 -2q7 0 22 9l19 12l14 7l3 -3q0 -15 -17 -29t-48 -14q-25 0 -49.5 21.5t-31 43t-8.5 33t-2 24.5q0 52 32 94t71 42q6 0 12.5 -1.5t17.5 -5.5l13 -7
l11 -9l11 -9l19 -24v54h41v-356z" />
    <glyph glyph-name="r" unicode="r" horiz-adv-x="294" 
d="M50 182q0 18 -13 18l-12 -3l-11 -2l-3 1l1 5q33 17 33 38l-1 7v5q4 4 6 4l15 -4l6 -5l7 -6l5 -7q5 -9 7 -23v-24q0 22 26 46q28 22 61 22q22 0 43 -24q19 -25 19 -47q0 -39 -26 -58q-7 -7 -19 -11l-14 -4h5h7q32 -8 37 -23v-34l1 -12q6 -18 22 -18l19 8h4q3 -2 4 -4t1 -3
v-6l-15 -10q-16 -8 -26 -8q-38 0 -38 43q0 34 -17 46q-9 5 -22 8t-35 3v10q77 0 77 75q0 16 -10.5 26t-30.5 13q-52 -4 -69 -54l-4 -22l-1 -148h-39v182z" />
    <glyph glyph-name="s" unicode="s" horiz-adv-x="247" 
d="M238 244q-15 -13 -22.5 -22t-10.5 -17l1 -13l1 -7v-10l-10 -8q-7 0 -7 16l-2 6q0 9 -3 14t-4.5 8t-4.5 8l-7 6q-7 5 -15.5 8.5t-18.5 3.5h-17q-55 0 -55 -52q0 -30 28.5 -36t48.5 -6h19q31 0 54 -16q22 -19 22 -59q0 -31 -12 -45.5t-42 -21.5l-46 -2q-26 0 -65 15l-11 6
l-11 3q-10 -3 -21 -9t-13.5 -7t-5.5 -3l-5 -1q-3 5 -3 8l8 8l16 15l5.5 8t5.5 14v17q0 14 -4 22q1 3 8 6l3.5 -7t7.5 -21.5t25 -35.5t55 -19q25 0 43 16t18 42q0 19 -18 31t-48 12q-49 0 -75.5 15.5t-26.5 47.5q0 38 29 52t38 16.5t21 2.5h22l45 -8h19q11 0 20 4l13 3
q7 -4 8 -8z" />
    <glyph glyph-name="t" unicode="t" horiz-adv-x="256" 
d="M22 126q0 67 61 101h-83v32l243 1l1 -32h-80q-22 0 -41 -10t-38 -31.5t-24 -63.5q0 -39 12.5 -64t26.5 -31.5t20 -8t26 -3.5q63 0 77 73h18q-30 -89 -106 -89q-53 0 -79.5 34t-31.5 71z" />
    <glyph glyph-name="u" unicode="u" horiz-adv-x="254" 
d="M48 185q0 18 -15 18l-13 -2l-8 -2l-3 1l1 5q32 15 32 37v6l-1 5q4 4 6 5q12 0 24.5 -14t15.5 -30v-124q18 -58 42 -58l49 35.5t26 20.5v97q0 11 -15 13h-8l-8 -1h-7l-2 2l1 5q26 12 35 37l-1 7v5q4 4 6 5q7 0 17.5 -8.5t15.5 -19.5l4 -15v-215h-38v69l-93 -69l-19 7
l-11 8q-33 26 -33 54v116z" />
    <glyph glyph-name="v" unicode="v" horiz-adv-x="256" 
d="M37 199q-2 3 -10 5l-7 -2l-7 -2l-7 -2h-4l-2 2l1 5q21 9 29 20l4 17l-1 6v5q4 4 6 5q12 0 21 -17l15 -36l30 -71l31 -78l37.5 107l31.5 95h39l-87 -258h-35l-22 52z" />
    <glyph glyph-name="w" unicode="w" horiz-adv-x="418" 
d="M205 69l-94 -69q-24 0 -42.5 26t-20.5 43v116q0 18 -14 18l-14 -2l-8 -2l-3 1l1 5q32 15 32 37v6l-1 5q4 4 6 5q12 0 24.5 -14t15.5 -30v-124q18 -58 42 -58l75 55v97q0 18 -14 18l-11 -2l-11 -2l-3 1l1 5q33 15 33 37l-1 6v5q4 5 6 6q12 0 24 -13t15 -31v-124
q10 -53 42 -59l20 15l21 15l35 26l-1 13v69l1 15q0 8 -16 14l-16 -2h-6l-3 2l1 5q35 18 35 38l-1 6v5q4 5 6 6q10 0 23.5 -14t13.5 -30l1 -214h-38v13l-1 10l1 10l-1 10l1 9v16q-4 -3 -18 -12.5t-27 -19.5l-48 -36q-13 0 -30 14l-10 10q-23 23 -23 45z" />
    <glyph glyph-name="x" unicode="x" horiz-adv-x="324" 
d="M1 -89l21 22q25 26 45 71l55 125l-16 32q-12 19 -15.5 24t-12.5 15l-9 9q-9 8 -15 6q-24 0 -40 -16l-4 -4l-3 -2l-3 1l-4 4l2 3q5 14 15 27l8 10q14 18 30 18q20 0 43 -23.5t43 -61.5q43 85 81 85q14 0 34 -12l6 -5l11 -11l7 -4l-17 -28l-9 6l-8 8q-9 9 -21 9
q-24 0 -46 -47l-14 -28l-4 -12l17 -33l10 -19l12 -16q28 -37 47 -37q12 2 21 6l16 12q9 9 18 11l5 -3l2 -5q-3 -14 -24 -31t-40 -17q-46 0 -94 75l-10 17l-38 -94q-11 -31 -37 -57.5t-45 -36.5l-13 -5l-7 3v9z" />
    <glyph glyph-name="y" unicode="y" horiz-adv-x="258" 
d="M51 184q0 17 -15 19l-8 -2l-14 -3l-3 1l1 5q33 15 33 37v7l-1 5q4 4 6 5q15 0 27 -15q13 -13 13 -29v-124q15 -54 42 -59q8 7 30 23l45 33v97q0 9 -6 12l-9 2q-11 0 -17 -2h-6l-3 2l2 5q34 19 34 38v7v5q4 4 6 5q11 0 23 -14.5t14 -29.5l-1 -216q0 -14 -3.5 -24
t-15.5 -25t-41.5 -31t-59.5 -16q-45 0 -84 45q-27 27 -27 43q0 7 5 8q3 -1 5.5 -3t6.5 -7l12 -18q36 -41 67 -41q35 0 62 14t31.5 30t4.5 27v68l-21 -15l-22 -17l-50 -36q-17 0 -41 23q-22 25 -22 45v116z" />
    <glyph glyph-name="z" unicode="z" horiz-adv-x="291" 
d="M1 258h225v-39l-158 -173q29 9 42 9h11q9 0 24 -5l49 -10l23 -1q25 0 42 11l19 -37l-20 -6l-11 -4l-25 -4q-15 0 -26.5 2t-29 8t-41.5 9h-22q-15 0 -66 -10l-37 -9v29q9 6 114 123l61 67h-174v40z" />
    <glyph glyph-name="braceleft" unicode="{" horiz-adv-x="148" 
d="M92 221v-19q0 -12 -1.5 -20t-15.5 -13l-6 -4l-17 -6l19 -9l13 -9q8 -5 8 -33v-144q0 -39 23 -53q7 -6 20 -10q-52 0 -64.5 16t-16.5 54l-2 38v114q0 10 -2 15q0 6 -5 9l-4 4l-13 4l-13 4l19 10l10 9q8 8 8 37v136q0 49 44 58q18 5 45 5q-39 -15 -46 -40l-3 -23v-130z" />
    <glyph glyph-name="bar" unicode="|" horiz-adv-x="90" 
d="M47 -99v483h38v-483h-38z" />
    <glyph glyph-name="braceright" unicode="}" horiz-adv-x="148" 
d="M66 93q0 28 5 40.5t33 22.5l-19 10l-4 2l-3 4l-4 4l-6 15l-2 15v146q0 42 -24 54q-6 6 -19 9q29 0 40 -2.5t21 -12.5l8 -7q8 -9 12 -48l2 -39v-99q0 -30 6 -39l21 -11l8 -2q-18 -6 -24 -13t-9 -18l-2 -23v-138q0 -36 -23 -49.5t-68 -13.5q12 4 21 9.5t19.5 17t10.5 37.5
v129z" />
    <glyph glyph-name="asciitilde" unicode="~" horiz-adv-x="377" 
d="M20 303l-4 -3q-7 2 -7 4l2 2l3 4l3 3l2 3l3 3l3 3l51 36l27 18q12 5 26 7q15 0 40 -13l48 -25l21 -6h9l7 -1q25 0 49 9q21 11 43 28l9 4l3 -1l2 -2l-2 -2l-15 -15l-8 -8l-10 -7l-40 -32q-31 -24 -57 -29h-12q-10 0 -25 7l-13 6l-13 7l-50 23q-8 4 -26 7q-19 0 -28 -5
l-17 -10l-12 -7z" />
    <glyph glyph-name="Adieresis" unicode="&#xc4;" horiz-adv-x="391" 
d="M272 335h-50v50h50v-50zM157 335h-50v50h50v-50zM373 0h-42l-6 11l-6 10l-44 74q-20 -35 -47.5 -61t-54.5 -26q-42 0 -72 26l-10 10l-11 8q-6 6 -19 8l-39 -60h-22l51 81l15 25l12.5 21.5t19.5 29.5l16 26l72 117l21 1l18 -33l22 -40l59 -104l45 -85zM267 108l-36 66
l-13 23l-35 65l-43 -74l-13 -22l-26 -43q-2 -15 13 -47l10 -14q22 -31 49 -31q19 0 28.5 6t20 15t28.5 31z" />
    <glyph glyph-name="Aring" unicode="&#xc5;" horiz-adv-x="391" 
d="M264 370q0 -22 -18.5 -36.5t-41.5 -14.5q-22 0 -36.5 10.5t-22.5 30.5l-1 10q0 11 3.5 19t17.5 20.5t39 12.5q41 0 55 -31q5 -8 5 -21zM373 0h-42l-6 11l-6 10l-44 74q-20 -35 -47.5 -61t-54.5 -26q-42 0 -72 26l-10 10l-11 8q-6 6 -19 8l-39 -60h-22l51 81l15 25
l12.5 21.5t19.5 29.5l16 26l72 117l21 1l18 -33l22 -40l59 -104l45 -85zM235 370q0 22 -19 32l-12 2q-10 -1 -12 -2l-4 -4q-15 -10 -15 -28q0 -9 4 -17l10 -12q14 -6 17 -6l12 3l5 3l10 13q4 10 4 16zM267 108l-36 66l-13 23l-35 65l-43 -74l-13 -22l-26 -43q-2 -15 13 -47
l10 -14q22 -31 49 -31q19 0 28.5 6t20 15t28.5 31z" />
    <glyph glyph-name="Ccedilla" unicode="&#xc7;" horiz-adv-x="291" 
d="M278 105q-19 -65 -73 -91q-20 -8 -47 -13q-49 0 -80 28q-24 16 -38.5 51t-14.5 81t28.5 85t73.5 51l31 4q82 0 113 -69l4 -14l-7 -4l-8 -4q-8 -2 -16 -7l-9 -4l-6 -2l-1 17q0 11 -2 17l-2 16q-4 18 -15 29q-12 9 -45 14q-41 0 -67.5 -36t-26.5 -85l1 -15v-20
q0 -54 25 -83t69 -29q33 0 59 17q17 13 24.5 33t7.5 33h22zM180 -34q0 -53 -39 -70l-11 19q6 1 10 7l4 4l8 21l1 19h-23v20h50v-20z" />
    <glyph glyph-name="Eacute" unicode="&#xc9;" horiz-adv-x="342" 
d="M213 396l-67 -80h-39l36 80h70zM326 145h-257q0 -63 27 -94q24 -31 66 -31q85 0 97 84h15h5q-15 -48 -42 -76t-81 -28q-36 0 -65.5 18.5t-48.5 51.5q-15 31 -20 76q0 28 8.5 53t33 63.5t89.5 38.5q47 0 89.5 -42t42.5 -96l10 1h22l9 -1v-18zM238 163q0 58 -48 102
q-12 8 -33 11q-64 0 -87 -108l-1 -5h169z" />
    <glyph glyph-name="Ntilde" unicode="&#xd1;" horiz-adv-x="279" 
d="M360 409l-2 -2l-15 -15l-8 -8l-10 -7l-40 -32q-31 -24 -57 -29h-12q-10 0 -25 7l-13 6l-13 7l-50 23q-8 4 -26 7q-19 0 -28 -5l-17 -10l-12 -7l-12 -8l-4 -3q-7 2 -7 4l2 2l3 4l3 3l2 3l3 3l3 3l51 36l27 18q12 5 26 7q15 0 40 -13l48 -25l21 -6h9l7 -1q25 0 49 9
q21 11 43 28l9 4l3 -1zM266 20l-1 -20h-46v214q0 20 -10 30q-5 8 -31 20l-38 -33l-7 -7l-31 -24v-199l-46 -1v215q0 13 -3 16.5t-14 4.5l-16 -3l-9 -2l-4 1l1 6q40 18 40 44q0 9 -2 14q4 5 7 5q16 0 30.5 -15.5t14.5 -36.5v-10l1 -5v-13q15 11 31.5 25l41.5 37q14 9 21 18
q60 -12 70 -56v-225z" />
    <glyph glyph-name="Odieresis" unicode="&#xd6;" 
d="M233 335h-50v50h50v-50zM118 335h-50v50h50v-50zM283 146q0 -54 -27 -92q-26 -41 -78 -53l-26 -2q-55 0 -93 42.5t-38 104.5q0 44 17.5 73.5t31.5 43.5t34 24.5t48 10.5q53 0 92 -45t39 -107zM237 145q0 53 -28 90.5t-57 37.5q-41 0 -71 -57q-14 -39 -14 -71
q0 -50 24 -85q25 -40 60 -40q43 0 64.5 39t21.5 86z" />
    <glyph glyph-name="Udieresis" unicode="&#xdc;" 
d="M233 335h-50v50h50v-50zM118 335h-50v50h50v-50zM283 0h-45v80l-78 -58l-31 -22q-39 9 -66 54q-5 14 -7 26v135q0 24 -17 21l-9 -1l-9 -2l-7 -1l-4 1l1 5q38 20 38 44v8l-1 5q4 5 7 6q16 -2 31 -17.5t15 -33.5l1 -38v-35l-1 -35l1 -37q5 -25 19 -45t29 -23l70 52l18 13
l-1 15v38l1 13v47q0 16 -18 16q-13 0 -19 -2h-7l-4 2l2 6q40 23 40 45v7l-1 6q4 5 7 6l8 -2q15 -3 25.5 -18t11.5 -31v-250z" />
    <glyph glyph-name="aacute" unicode="&#xe1;" horiz-adv-x="335" 
d="M222 370l-59 -70h-34l31 70h62zM320 0h-35l-49 80l-17 -25l-10 -12q-30 -36 -60 -36q-34 0 -62 22l-10 9q-16 11 -25 13l-33 -51h-19l44 70l14 24t12 19l14 22l76 123h17l4 -6l5 -10q30 -60 51.5 -98.5l78.5 -135.5zM229 93l-42 76l-30 55l-48 -81l-24 -38q0 -27 22 -52
q14 -18 25 -22.5t17 -4.5l7 1l16 4q25 12 57 62z" />
    <glyph glyph-name="agrave" unicode="&#xe0;" horiz-adv-x="335" 
d="M203 301h-33l-59 70h62zM320 0h-35l-49 80l-17 -25l-10 -12q-30 -36 -60 -36q-34 0 -62 22l-10 9q-16 11 -25 13l-33 -51h-19l44 70l14 24t12 19l14 22l76 123h17l4 -6l5 -10q30 -60 51.5 -98.5l78.5 -135.5zM229 93l-42 76l-30 55l-48 -81l-24 -38q0 -27 22 -52
q14 -18 25 -22.5t17 -4.5l7 1l16 4q25 12 57 62z" />
    <glyph glyph-name="acircumflex" unicode="&#xe2;" horiz-adv-x="335" 
d="M275 298h-50l-58 24l-59 -24h-49l89 73h38zM320 0h-35l-49 80l-17 -25l-10 -12q-30 -36 -60 -36q-34 0 -62 22l-10 9q-16 11 -25 13l-33 -51h-19l44 70l14 24t12 19l14 22l76 123h17l4 -6l5 -10q30 -60 51.5 -98.5l78.5 -135.5zM229 93l-42 76l-30 55l-48 -81l-24 -38
q0 -27 22 -52q14 -18 25 -22.5t17 -4.5l7 1l16 4q25 12 57 62z" />
    <glyph glyph-name="adieresis" unicode="&#xe4;" horiz-adv-x="335" 
d="M239 299h-50v50h50v-50zM124 299h-50v50h50v-50zM320 0h-35l-49 80l-17 -25l-10 -12q-30 -36 -60 -36q-34 0 -62 22l-10 9q-16 11 -25 13l-33 -51h-19l44 70l14 24t12 19l14 22l76 123h17l4 -6l5 -10q30 -60 51.5 -98.5l78.5 -135.5zM229 93l-42 76l-30 55l-48 -81
l-24 -38q0 -27 22 -52q14 -18 25 -22.5t17 -4.5l7 1l16 4q25 12 57 62z" />
    <glyph glyph-name="atilde" unicode="&#xe3;" horiz-adv-x="335" 
d="M360 376l-2 -2l-15 -15l-8 -8l-10 -7l-40 -32q-31 -24 -57 -29h-12q-10 0 -25 7l-13 6l-13 7l-50 23q-8 4 -26 7q-19 0 -28 -5l-17 -10l-12 -7l-12 -8l-4 -3q-7 2 -7 4l2 2l3 4l3 3l2 3l3 3l3 3l51 36l27 18q12 5 26 7q15 0 40 -13l48 -25l21 -6h9l7 -1q25 0 49 9
q21 11 43 28l9 4l3 -1zM320 0h-35l-49 80l-17 -25l-10 -12q-30 -36 -60 -36q-34 0 -62 22l-10 9q-16 11 -25 13l-33 -51h-19l44 70l14 24t12 19l14 22l76 123h17l4 -6l5 -10q30 -60 51.5 -98.5l78.5 -135.5zM229 93l-42 76l-30 55l-48 -81l-24 -38q0 -27 22 -52
q14 -18 25 -22.5t17 -4.5l7 1l16 4q25 12 57 62z" />
    <glyph glyph-name="aring" unicode="&#xe5;" horiz-adv-x="335" 
d="M228 346q0 -22 -18.5 -36.5t-41.5 -14.5q-22 0 -36.5 10.5t-22.5 30.5l-1 10q0 11 3.5 19t17.5 20.5t39 12.5q41 0 55 -31q5 -8 5 -21zM320 0h-35l-49 80l-17 -25l-10 -12q-30 -36 -60 -36q-34 0 -62 22l-10 9q-16 11 -25 13l-33 -51h-19l44 70l14 24t12 19l14 22l76 123
h17l4 -6l5 -10q30 -60 51.5 -98.5l78.5 -135.5zM199 346q0 22 -19 32l-12 2q-10 -1 -12 -2l-4 -4q-15 -10 -15 -28q0 -9 4 -17l10 -12q14 -6 17 -6l12 3l5 3l10 13q4 10 4 16zM229 93l-42 76l-30 55l-48 -81l-24 -38q0 -27 22 -52q14 -18 25 -22.5t17 -4.5l7 1l16 4
q25 12 57 62z" />
    <glyph glyph-name="ccedilla" unicode="&#xe7;" horiz-adv-x="251" 
d="M240 90q-24 -79 -101 -89q-52 0 -83.5 38t-31.5 99q0 43 30 81.5t84 38.5q65 0 91 -48l9 -24q-12 -3 -22.5 -8.5t-13 -7.5t-3.5 -2v18q-3 16 -4 25l-4 12q-14 24 -47 24q-49 0 -73 -58l-8 -44v-13q0 -53 17 -79q19 -34 65 -34q34 0 53 21t25 50h17zM165 -34
q0 -53 -39 -70l-11 19q6 1 10 7l4 4l8 21l1 19h-23v20h50v-20z" />
    <glyph glyph-name="eacute" unicode="&#xe9;" 
d="M183 370l-59 -70h-33l31 70h61zM283 124h-221q0 -38 12.5 -64t31.5 -34.5t37 -8.5q36 0 55 15.5t27 56.5h17q-26 -89 -105 -89q-51 0 -80.5 37t-34.5 88q3 32 19 67.5t42 50.5t51 15q57 0 80 -35.5t28 -50.5t5 -32h36v-16zM208 140l-2 16q0 8 -4 16l-6 16l-18 28l-12 10
q-15 9 -28 9q-32 0 -47.5 -23t-27.5 -68v-4h145z" />
    <glyph glyph-name="egrave" unicode="&#xe8;" 
d="M174 301h-33l-60 70h63zM283 124h-221q0 -38 12.5 -64t31.5 -34.5t37 -8.5q36 0 55 15.5t27 56.5h17q-26 -89 -105 -89q-51 0 -80.5 37t-34.5 88q3 32 19 67.5t42 50.5t51 15q57 0 80 -35.5t28 -50.5t5 -32h36v-16zM208 140l-2 16q0 8 -4 16l-6 16l-18 28l-12 10
q-15 9 -28 9q-32 0 -47.5 -23t-27.5 -68v-4h145z" />
    <glyph glyph-name="ecircumflex" unicode="&#xea;" 
d="M245 298h-50l-58 24l-59 -24h-49l89 73h38zM283 124h-221q0 -38 12.5 -64t31.5 -34.5t37 -8.5q36 0 55 15.5t27 56.5h17q-26 -89 -105 -89q-51 0 -80.5 37t-34.5 88q3 32 19 67.5t42 50.5t51 15q57 0 80 -35.5t28 -50.5t5 -32h36v-16zM208 140l-2 16q0 8 -4 16l-6 16
l-18 28l-12 10q-15 9 -28 9q-32 0 -47.5 -23t-27.5 -68v-4h145z" />
    <glyph glyph-name="edieresis" unicode="&#xeb;" 
d="M221 299h-50v50h50v-50zM106 299h-50v50h50v-50zM283 124h-221q0 -38 12.5 -64t31.5 -34.5t37 -8.5q36 0 55 15.5t27 56.5h17q-26 -89 -105 -89q-51 0 -80.5 37t-34.5 88q3 32 19 67.5t42 50.5t51 15q57 0 80 -35.5t28 -50.5t5 -32h36v-16zM208 140l-2 16q0 8 -4 16
l-6 16l-18 28l-12 10q-15 9 -28 9q-32 0 -47.5 -23t-27.5 -68v-4h145z" />
    <glyph glyph-name="iacute" unicode="&#xed;" horiz-adv-x="128" 
d="M122 370l-60 -71h-34l31 71h63zM105 0h-39v184q0 17 -15 19l-11 -2l-10 -2l-3 1l2 4q32 15 32 38l-1 6v5q4 4 6 5q17 0 27 -14.5t12 -32.5v-211z" />
    <glyph glyph-name="igrave" unicode="&#xec;" horiz-adv-x="110" 
d="M102 302h-34l-60 70h62zM105 0h-39v184q0 17 -15 19l-11 -2l-10 -2l-3 1l2 4q32 15 32 38l-1 6v5q4 4 6 5q17 0 27 -14.5t12 -32.5v-211z" />
    <glyph glyph-name="icircumflex" unicode="&#xee;" horiz-adv-x="110" 
d="M182 298h-50l-58 24l-59 -24h-49l89 73h38zM105 0h-39v184q0 17 -15 19l-11 -2l-10 -2l-3 1l2 4q32 15 32 38l-1 6v5q4 4 6 5q17 0 27 -14.5t12 -32.5v-211z" />
    <glyph glyph-name="idieresis" unicode="&#xef;" horiz-adv-x="110" 
d="M158 299h-50v50h50v-50zM43 299h-50v50h50v-50zM105 0h-39v184q0 17 -15 19l-11 -2l-10 -2l-3 1l2 4q32 15 32 38l-1 6v5q4 4 6 5q17 0 27 -14.5t12 -32.5v-211z" />
    <glyph glyph-name="ntilde" unicode="&#xf1;" horiz-adv-x="238" 
d="M315 376l-2 -2l-15 -15l-8 -8l-10 -7l-40 -32q-31 -24 -57 -29h-12q-10 0 -25 7l-13 6l-13 7l-50 23q-8 4 -26 7q-19 0 -28 -5l-17 -10l-12 -7l-12 -8l-4 -3q-7 2 -7 4l2 2l3 4l3 3l2 3l3 3l3 3l51 36l27 18q12 5 26 7q15 0 40 -13l48 -25l21 -6h9l7 -1q25 0 49 9
q21 11 43 28l9 4l3 -1zM227 0h-39v184q-2 17 -7.5 25t-27.5 17l-19 -15l-7 -7l-6 -6l-34 -26v-171l-39 -1v185q0 18 -14 17l-14 -2l-8 -2l-3 1l1 5q34 15 34 38l-1 6l-1 5q4 4 6 5q17 0 26.5 -12t12.5 -32v-24q34 22 63 52l16 13l2 3q27 -4 41 -16q14 -9 18 -32v-210z" />
    <glyph glyph-name="oacute" unicode="&#xf3;" horiz-adv-x="260" 
d="M184 370l-59 -70h-34l31 70h62zM247 126q0 -53 -33 -90t-80 -37q-39 0 -69.5 28t-40.5 74l-3 25q0 45 33.5 88.5t79.5 43.5q72 0 92.5 -52.5t20.5 -79.5zM208 126q0 68 -45 101q-12 6 -29 8q-9 0 -14 -1.5t-14 -6.5l-12 -10q-33 -36 -33 -91q0 -24 9.5 -49.5t22.5 -41.5
q21 -18 41 -18q16 0 29 8l12 10q12 12 22.5 39.5t10.5 51.5z" />
    <glyph glyph-name="ograve" unicode="&#xf2;" horiz-adv-x="260" 
d="M177 301h-33l-60 70h63zM247 126q0 -53 -33 -90t-80 -37q-39 0 -69.5 28t-40.5 74l-3 25q0 45 33.5 88.5t79.5 43.5q72 0 92.5 -52.5t20.5 -79.5zM208 126q0 68 -45 101q-12 6 -29 8q-9 0 -14 -1.5t-14 -6.5l-12 -10q-33 -36 -33 -91q0 -24 9.5 -49.5t22.5 -41.5
q21 -18 41 -18q16 0 29 8l12 10q12 12 22.5 39.5t10.5 51.5z" />
    <glyph glyph-name="ocircumflex" unicode="&#xf4;" horiz-adv-x="260" 
d="M242 298h-50l-58 24l-59 -24h-49l89 73h38zM247 126q0 -53 -33 -90t-80 -37q-39 0 -69.5 28t-40.5 74l-3 25q0 45 33.5 88.5t79.5 43.5q72 0 92.5 -52.5t20.5 -79.5zM208 126q0 68 -45 101q-12 6 -29 8q-9 0 -14 -1.5t-14 -6.5l-12 -10q-33 -36 -33 -91q0 -24 9.5 -49.5
t22.5 -41.5q21 -18 41 -18q16 0 29 8l12 10q12 12 22.5 39.5t10.5 51.5z" />
    <glyph glyph-name="odieresis" unicode="&#xf6;" horiz-adv-x="260" 
d="M215 299h-50v50h50v-50zM100 299h-50v50h50v-50zM247 126q0 -53 -33 -90t-80 -37q-39 0 -69.5 28t-40.5 74l-3 25q0 45 33.5 88.5t79.5 43.5q72 0 92.5 -52.5t20.5 -79.5zM208 126q0 68 -45 101q-12 6 -29 8q-9 0 -14 -1.5t-14 -6.5l-12 -10q-33 -36 -33 -91
q0 -24 9.5 -49.5t22.5 -41.5q21 -18 41 -18q16 0 29 8l12 10q12 12 22.5 39.5t10.5 51.5z" />
    <glyph glyph-name="otilde" unicode="&#xf5;" horiz-adv-x="260" 
d="M324 376l-2 -2l-15 -15l-8 -8l-10 -7l-40 -32q-31 -24 -57 -29h-12q-10 0 -25 7l-13 6l-13 7l-50 23q-8 4 -26 7q-19 0 -28 -5l-17 -10l-12 -7l-12 -8l-4 -3q-7 2 -7 4l2 2l3 4l3 3l2 3l3 3l3 3l51 36l27 18q12 5 26 7q15 0 40 -13l48 -25l21 -6h9l7 -1q25 0 49 9
q21 11 43 28l9 4l3 -1zM247 126q0 -53 -33 -90t-80 -37q-39 0 -69.5 28t-40.5 74l-3 25q0 45 33.5 88.5t79.5 43.5q72 0 92.5 -52.5t20.5 -79.5zM208 126q0 68 -45 101q-12 6 -29 8q-9 0 -14 -1.5t-14 -6.5l-12 -10q-33 -36 -33 -91q0 -24 9.5 -49.5t22.5 -41.5
q21 -18 41 -18q16 0 29 8l12 10q12 12 22.5 39.5t10.5 51.5z" />
    <glyph glyph-name="uacute" unicode="&#xfa;" horiz-adv-x="254" 
d="M187 370l-59 -70h-34l31 70h62zM242 0h-38v69l-93 -69l-19 7l-11 8q-33 26 -33 54v116q0 18 -15 18l-13 -2l-8 -2l-3 1l1 5q32 15 32 37v6l-1 5q4 4 6 5q12 0 24.5 -14t15.5 -30v-124q18 -58 42 -58l49 35.5t26 20.5v97q0 11 -15 13h-8l-8 -1h-7l-2 2l1 5q26 12 35 37
l-1 7v5q4 4 6 5q7 0 17.5 -8.5t15.5 -19.5l4 -15v-215z" />
    <glyph glyph-name="ugrave" unicode="&#xf9;" horiz-adv-x="254" 
d="M177 301h-33l-60 70h63zM242 0h-38v69l-93 -69l-19 7l-11 8q-33 26 -33 54v116q0 18 -15 18l-13 -2l-8 -2l-3 1l1 5q32 15 32 37v6l-1 5q4 4 6 5q12 0 24.5 -14t15.5 -30v-124q18 -58 42 -58l49 35.5t26 20.5v97q0 11 -15 13h-8l-8 -1h-7l-2 2l1 5q26 12 35 37l-1 7v5
q4 4 6 5q7 0 17.5 -8.5t15.5 -19.5l4 -15v-215z" />
    <glyph glyph-name="ucircumflex" unicode="&#xfb;" horiz-adv-x="254" 
d="M236 298h-50l-58 24l-59 -24h-49l89 73h38zM242 0h-38v69l-93 -69l-19 7l-11 8q-33 26 -33 54v116q0 18 -15 18l-13 -2l-8 -2l-3 1l1 5q32 15 32 37v6l-1 5q4 4 6 5q12 0 24.5 -14t15.5 -30v-124q18 -58 42 -58l49 35.5t26 20.5v97q0 11 -15 13h-8l-8 -1h-7l-2 2l1 5
q26 12 35 37l-1 7v5q4 4 6 5q7 0 17.5 -8.5t15.5 -19.5l4 -15v-215z" />
    <glyph glyph-name="udieresis" unicode="&#xfc;" horiz-adv-x="254" 
d="M221 299h-50v50h50v-50zM106 299h-50v50h50v-50zM242 0h-38v69l-93 -69l-19 7l-11 8q-33 26 -33 54v116q0 18 -15 18l-13 -2l-8 -2l-3 1l1 5q32 15 32 37v6l-1 5q4 4 6 5q12 0 24.5 -14t15.5 -30v-124q18 -58 42 -58l49 35.5t26 20.5v97q0 11 -15 13h-8l-8 -1h-7l-2 2
l1 5q26 12 35 37l-1 7v5q4 4 6 5q7 0 17.5 -8.5t15.5 -19.5l4 -15v-215z" />
    <glyph glyph-name="dagger" unicode="&#x2020;" horiz-adv-x="296" 
d="M174 335h-50v50h50v-50zM282 261q-164 0 -164 -95q0 -26 16 -33.5t66 -15.5l30 -7q27 -11 39 -27.5t12 -47.5q0 -53 -21.5 -77.5t-29 -30.5t-25 -16.5t-39.5 -10.5q-16 0 -29.5 5.5t-28.5 18.5l-10 6q-15 12 -34 15h-13l-23 -3l-20 -4q-6 0 -8 6q0 9 24 23l18 19l4 14
l1 12l-3 25l-1 10v9q1 5 9 7q8 0 15 -35.5t17 -59t32.5 -35t41.5 -11.5q35 0 65 37q18 26 18 53q0 12 -1 19.5t-6 14.5q-9 24 -47 33l-16 4q-76 11 -89 31t-16 44q0 38 40 64l25 16q12 8 12 22h-132v39h271v-38z" />
    <glyph glyph-name="degree" unicode="&#xb0;" horiz-adv-x="266" 
d="M156 299h-50v50h50v-50zM253 223q-106 0 -137 -46q-10 -17 -10 -38q0 -19 13 -29q13 -7 47 -13q48 -6 61 -16q24 -15 24 -60t-30.5 -83t-71.5 -38q-15 0 -24 5l-20 12l-21 13q-7 4 -12.5 6.5t-14.5 4.5h-11q-21 -3 -28 -4.5t-11 -2.5q-5 0 -7 6q0 5 9 13l6 4
q12 3 19.5 13.5t7.5 30.5l-2 16l-1 15v8q0 6 8 6q7 0 12 -21l10 -41q6 -27 23.5 -45.5t49.5 -18.5q39 0 67 48q8 16 8 33q0 23 -14 41l-10 8l-12 6l-34 10l-36 7l-27 10l-10 9q-14 14 -14 39q0 23 18 41l33 24q18 12 18 26h-119v36h243v-35z" />
    <glyph glyph-name="cent" unicode="&#xa2;" horiz-adv-x="251" 
d="M240 90q-21 -70 -83 -86v-55h-38v54q-39 6 -67 40t-28 95q0 43 28 78q24 33 67 41v43h38v-44q51 -8 72 -46l9 -24q-12 -3 -22.5 -8.5t-13 -7.5t-3.5 -2v18q-3 16 -4 25l-4 12q-10 18 -34 23v-226q26 3 43 22t23 48h17zM119 23v220q-30 -11 -48 -54l-8 -44v-13
q0 -53 17 -79q12 -22 39 -30z" />
    <glyph glyph-name="sterling" unicode="&#xa3;" horiz-adv-x="282" 
d="M97 208h80v-36h-71l5 -22q0 -9 -1.5 -18.5t-9.5 -25.5q-9 -22 -35 -50l36 5q26 0 47 -7q47 -9 58 -9q16 0 34 11l14 8l15 -44q-38 -19 -62 -19l-10 1h-10l-32 8l-33 10l-12 2l-11 1q-29 0 -58 -13l-18 -9l-18 44q26 12 43.5 37.5t17.5 58.5q0 4 -1 12.5t-4 18.5h-50v36
h40q-9 31 -12 54v13q0 34 17.5 60t44 35.5t47.5 9.5q45 0 73 -23.5t37 -70.5l-45 -5q-3 27 -24 45q-18 18 -42 18q-26 0 -45 -19t-19 -43q0 -23 14 -74z" />
    <glyph glyph-name="section" unicode="&#xa7;" horiz-adv-x="247" 
d="M237 283q-15 -13 -22.5 -22t-10.5 -17l1 -13l1 -7v-10l-10 -8q-7 0 -7 16l-2 6q0 9 -3 14t-4.5 8t-4.5 8l-7 6q-7 5 -15.5 8.5t-18.5 3.5h-17q-55 0 -55 -52q0 -30 28.5 -36t48.5 -6h19q31 0 54 -16q22 -19 22 -59q0 -31 -8 -41.5t-18 -16.5l5 -3q22 -19 22 -59
q0 -31 -12 -45.5t-42 -21.5l-46 -2q-26 0 -65 15l-11 6l-11 3q-10 -3 -21 -9t-13.5 -7t-5.5 -3l-5 -1q-3 5 -3 8l8 8l16 15q2 4 5.5 8.5t5.5 13.5v17q0 14 -4 22q1 3 8 6l3.5 -7t7.5 -21.5t25 -35.5t55 -19q25 0 43 16t18 42q0 19 -18 31t-48 12q-49 0 -75.5 15.5
t-26.5 47.5q0 38 46 60l5 3q-7 2 -13 4t-22.5 11.5t-16.5 41.5q0 38 29 52t38 16.5t21 2.5h22l45 -8h19q11 0 20 4l13 3q7 -4 8 -8zM190 115q0 19 -14 28.5t-26.5 11t-31.5 1.5q-55 0 -55 -52q0 -30 28.5 -36t45.5 -6q16 0 23 2.5t18.5 13.5t11.5 37z" />
    <glyph glyph-name="bullet" unicode="&#x2022;" horiz-adv-x="243" 
d="M180 143q-23 -23 -56 -23q-31 0 -55.5 23.5t-24.5 56.5q0 31 24 57q23 22 56 22q16 0 30 -5t32 -24t18 -50q0 -33 -24 -57z" />
    <glyph glyph-name="paragraph" unicode="&#xb6;" horiz-adv-x="411" 
d="M374 294l-1 -6v-8q0 -15 -3 -25t-3 -41v-313h-45l-1 31v226v18q-1 7 -1 15v12q0 21 1 27l-6 1l-15 3q-17 0 -17 -20v-313h-45l-1 31v226v18q-4 41 -24 68q-23 36 -66 36q-35 0 -51 -31q-20 -31 -20 -99q0 -61 9 -86.5t20.5 -33.5t32.5 -11l14 4q17 11 26 38l8 24l4 -8
l3 -21q2 -18 5 -24l11 -15q0 -7 -8 -7l-13 2h-17l-10 -2l-12 -6q-8 -3 -18 -1l-17 3q-36 12 -60 54t-24 87q0 57 32.5 104t81.5 47q29 0 60 -25l12 -10l21 -28v8l1 4l3 18q16 34 41 34q4 0 8 -5l-1 -6v-8q0 -23 32 -41v4l1 4l3 18q16 34 41 34q4 0 8 -5z" />
    <glyph glyph-name="germandbls" unicode="&#xdf;" horiz-adv-x="378" 
d="M355 68q0 -31 -12 -45.5t-42 -21.5l-46 -2q-26 0 -65 15l-11 6l-11 3q-10 -3 -21 -9t-13.5 -7t-5.5 -3l-5 -1q-3 5 -3 8l8 8l16 15l5.5 8t5.5 14v17q0 14 -4 22q1 3 8 6l3.5 -7t7.5 -21.5t25 -35.5t55 -19q25 0 43 16t18 42q0 19 -18 31t-48 12q-49 0 -75.5 15.5
t-26.5 47.5q0 23 18 41q-5 -4 -35.5 -25.5l-37.5 -26.5v-271h-41v281q0 19 -14 19q-8 0 -22 -5l-3 1l1 5q30 12 36 39l-1 7v5l2 4l6 2q9 0 22.5 -15t13.5 -32v-20q60 43 89 67q5 0 11.5 -6.5t0.5 -9.5l-6 -57q0 -30 28.5 -36t48.5 -6h19q31 0 54 -16q22 -19 22 -59z" />
    <glyph glyph-name="registered" unicode="&#xae;" horiz-adv-x="523" 
d="M387 63l-13 -8q-11 -7 -22 -7q-31 0 -31 36q0 28 -14 37.5t-46 9.5v8q63 0 63 62q0 12 -9.5 21t-24.5 10q-41 0 -57 -44l-3 -18v-57l-1 -13v-52h-32v150q0 15 -11 15l-10 -2l-8 -2l-3 1l1 4q27 14 27 31l-1 6v4l5 3q8 -1 12 -3l6 -4l5 -5l4 -6q4 -7 6 -19v-19q0 18 22 37
t49 19q18 0 36 -20q15 -20 15 -39q0 -15 -3 -26t-13 -19t-21 -12l-11 -3h4h6q27 -8 30 -19v-28l1 -10q5 -15 18 -15l16 7l8 -6v-5zM487 19q-24 -54 -76 -86t-134 -32q-31 0 -55 3t-65 15.5t-79 54t-50 97.5q-4 25 -4.5 35.5t-0.5 17.5q0 66 30.5 125t84 95.5t135.5 36.5
q131 0 168.5 -62.5t50 -110t12.5 -95.5q0 -24 -4 -48t-13 -46zM402 298q-48 48 -132 48q-56 0 -105 -27t-77.5 -78t-28.5 -112q0 -110 54.5 -143.5t93.5 -41t70 -7.5q63 0 100.5 19.5t57.5 50.5t26 56t6 50q0 56 -22 112t-43 73z" />
    <glyph glyph-name="copyright" unicode="&#xa9;" horiz-adv-x="523" 
d="M334 111q-16 -55 -70 -62q-36 0 -60 27q-21 29 -21 69q0 29 21.5 56.5t58.5 27.5q45 0 64 -34l6 -17l-18 -7q-4 -2 -6 -3.5t-3 -1.5l-3 30l-3 8q-9 17 -33 17q-35 0 -51 -40l-5 -31v-9q0 -39 12 -56q12 -23 45 -23q25 0 38 15t17 34h11zM487 19q-24 -54 -76 -86t-134 -32
q-31 0 -55 3t-65 15.5t-79 54t-50 97.5q-4 25 -4.5 35.5t-0.5 17.5q0 66 30.5 125t84 95.5t135.5 36.5q131 0 168.5 -62.5t50 -110t12.5 -95.5q0 -24 -4 -48t-13 -46zM402 298q-48 48 -132 48q-56 0 -105 -27t-77.5 -78t-28.5 -112q0 -110 54.5 -143.5t93.5 -41t70 -7.5
q63 0 100.5 19.5t57.5 50.5t26 56t6 50q0 56 -22 112t-43 73z" />
    <glyph glyph-name="trademark" unicode="&#x2122;" horiz-adv-x="351" 
d="M144 351h-40q-22 0 -37 -18q-12 -12 -15 -34q0 -20 6 -32t17 -18l20 -4q32 0 38 37h9q-15 -45 -53 -45q-25 0 -40 18t-15 35l-1 10q0 34 30 51h-41v16h121zM330 237h-19v92q-1 15 -18 21l-2 -2l-4 -4l-5 -3l-4 -5l-6 -4l-11 -9v-8v-11v-13v-48v-6h-19v92q-2 9 -5 13
t-13 8l-5 -4l-15 -12l-3 -3l-10 -8v-37l1 -13v-12v-24h-20v92q0 9 -7 9h-4l-4 -1l-3 -1l-1 3q10 4 14 10l2 9v6l3 2q8 -3 10 -5l8 -10l2 -7v-7l-1 -5l13 10l6 6l21 17l13 -1q7 -2 10.5 -6.5t6.5 -16.5v-8q19 11 40 32l18 -6q10 -6 11 -18v-104z" />
    <glyph glyph-name="acute" unicode="&#xb4;" horiz-adv-x="128" 
d="M122 370l-60 -71h-34l31 71h63z" />
    <glyph glyph-name="dieresis" unicode="&#xa8;" horiz-adv-x="488" 
d="M278 316h-39l-67 80h70zM465 -1l-45 1l-1 7v72l-108 -79q-18 0 -40 22.5t-30 44.5l-2 13q-32 -21 -110 -80q-39 9 -66 54q-5 14 -7 26v135q0 24 -17 21l-9 -1l-9 -2l-7 -1l-4 1l1 5q38 20 38 44v8l-1 5q4 5 7 6q16 -2 31 -17.5t15 -33.5l1 -38v-35l-1 -35l1 -37
q5 -25 19 -45t29 -23l87 65l1 56v56q0 22 -17 22l-9 -2l-9 -2l-7 -1l-4 1l1 5q38 20 38 45v7l-1 6q4 5 7 5q12 0 23 -9.5t15 -17.5t5.5 -12.5t2.5 -11.5v-145q7 -31 21 -49t28 -18l47 34q10 7 23.5 18t16.5 13v112q0 16 -18 16q-12 0 -19 -2h-7l-3 3l2 6q40 20 40 44l-1 8v6
q4 5 7 5q12 0 28.5 -18t16.5 -33v-250z" />
    <glyph glyph-name="notequal" unicode="&#x2260;" horiz-adv-x="287" 
d="M139 223h-109v45h122l30 106h40l-31 -106h83v-45h-96l-19 -68h115v-44h-128l-33 -115h-38l32 115h-77v44h90z" />
    <glyph glyph-name="AE" unicode="&#xc6;" horiz-adv-x="578" 
d="M576 145h-257q0 -63 27 -94q24 -31 66 -31q85 0 97 84h15h5q-15 -48 -42 -76t-81 -28q-36 0 -65.5 18.5t-48.5 51.5l-17 25q-20 -35 -47.5 -61t-54.5 -26q-42 0 -72 26l-10 10l-11 8q-6 6 -19 8l-39 -60h-22l51 81l15 25l12.5 21.5t19.5 29.5l16 26l72 117l21 1l18 -33
l22 -40l29 -50q8 39 28 68q34 55 99 55q47 0 89.5 -42t42.5 -96l10 1h22l9 -1v-18zM488 163q0 58 -48 102q-12 8 -33 11q-64 0 -87 -108l-1 -5h169zM267 108l-36 66l-13 23l-35 65l-43 -74l-13 -22l-26 -43q-2 -15 13 -47l10 -14q22 -31 49 -31q19 0 28.5 6t20 15t28.5 31z
" />
    <glyph glyph-name="Oslash" unicode="&#xd8;" 
d="M283 146q0 -54 -27 -92q-26 -41 -78 -53l-26 -2l-28 3l-2 -6h-38l6 19q-17 9 -43 39t-26 92q0 44 17.5 73.5t31.5 43.5t34 24.5t48 10.5q18 0 36 -6l3 10h40l-10 -28q6 -5 10.5 -8t12.5 -14q39 -44 39 -106zM178 265q-13 8 -26 8q-41 0 -71 -57q-14 -39 -14 -71
q0 -50 24 -85l10 -14zM237 145q0 53 -29 92l-76 -213q12 -4 19 -4q43 0 64.5 39t21.5 86z" />
    <glyph glyph-name="plusminus" unicode="&#xb1;" horiz-adv-x="241" 
d="M141 299h-50v50h50v-50zM230 172l-14 -10l-10 -6l-8 -5q0 12 -7.5 34.5t-17 30t-14.5 7.5q-14 -14 -71 -52v-271h-41v281q0 19 -14 19q-8 0 -22 -5l-3 1l1 5q30 12 36 39l-1 7v5l2 4l6 2q9 0 22.5 -15t13.5 -32v-20q60 43 89 67q22 0 51 -77z" />
    <glyph glyph-name="lessequal" unicode="&#x2264;" horiz-adv-x="287" 
d="M274 -3h-244v44h244v-44zM244 290v-50l-150 -58l150 -59v-49l-199 89v38z" />
    <glyph glyph-name="greaterequal" unicode="&#x2265;" horiz-adv-x="287" 
d="M255 163l-199 -89v49l150 59l-150 58v50l199 -89v-38zM274 -3h-244v44h244v-44z" />
    <glyph glyph-name="yen" unicode="&#xa5;" horiz-adv-x="273" 
d="M153 335h-50v50h50v-50zM261 203l-17 -11l-11 -7l-9 -6l-14 45l-6 14q-16 22 -23 23l-41 -31l-11 -8l-28 -20v-125h113v-34h-113v-144h-46v314q0 20 -15 22l-25 -6l-4 1l1 5q40 22 40 45v14q4 5 8 5q14 0 29 -16q12 -15 12 -36v-22l100 74q9 0 19.5 -10.5t18.5 -29.5
l8 -17z" />
    <glyph glyph-name="mu" unicode="&#xb5;" horiz-adv-x="242" 
d="M144 299h-50v50h50v-50zM231 171l-14 -10l-10 -6l-8 -5l-8 28l-4 12l-6 12q-9 19 -20 20l-8 -6l-56 -41l-7 -5v-110h101v-31h-101v-128h-41v279q0 20 -14 19l-13 -2l-9 -2l-3 1l1 4q30 17 36 39l-1 7v5q1 4 8 5q9 0 17.5 -9t13.5 -18.5t5 -18.5v-19l23 16l23 17l43 32
q14 0 34 -36q18 -36 18 -49z" />
    <glyph glyph-name="ordfeminine" unicode="&#xaa;" horiz-adv-x="488" 
d="M465 -1l-45 1l-1 7v72l-108 -79q-18 0 -40 22.5t-30 44.5l-2 13q-32 -21 -110 -80q-39 9 -66 54q-5 14 -7 26v135q0 24 -17 21l-9 -1l-9 -2l-7 -1l-4 1l1 5q38 20 38 44v8l-1 5q4 5 7 6q16 -2 31 -17.5t15 -33.5l1 -38v-35l-1 -35l1 -37q5 -25 19 -45t29 -23l87 65l1 56
v56q0 22 -17 22l-9 -2l-9 -2l-7 -1l-4 1l1 5q38 20 38 45v7l-1 6q4 5 7 5q12 0 23 -9.5t15 -17.5t5.5 -12.5t2.5 -11.5v-145q7 -31 21 -49t28 -18l47 34q10 7 23.5 18t16.5 13v112q0 16 -18 16q-12 0 -19 -2h-7l-3 3l2 6q40 20 40 44l-1 8v6q4 5 7 5q12 0 28.5 -18t16.5 -33
v-250zM330 399l-67 -80h-39l35 80h71z" />
    <glyph glyph-name="ordmasculine" unicode="&#xba;" horiz-adv-x="418" 
d="M399 0h-38v13l-1 10l1 10l-1 10l1 9v16q-4 -3 -18 -12.5t-27 -19.5l-48 -36q-13 0 -30 14l-10 10q-23 23 -23 45l-94 -69q-24 0 -42.5 26t-20.5 43v116q0 18 -14 18l-14 -2l-8 -2l-3 1l1 5q32 15 32 37v6l-1 5q4 4 6 5q12 0 24.5 -14t15.5 -30v-124q18 -58 42 -58l75 55
v97q0 18 -14 18l-11 -2l-11 -2l-3 1l1 5q33 15 33 37l-1 6v5q4 5 6 6q12 0 24 -13t15 -31v-124q10 -53 42 -59l20 15l21 15l35 26l-1 13v69l1 15q0 8 -16 14l-16 -2h-6l-3 2l1 5q35 18 35 38l-1 6v5q4 5 6 6q10 0 23.5 -14t13.5 -30zM286 370l-59 -70h-34l31 70h62z" />
    <glyph glyph-name="ae" unicode="&#xe6;" horiz-adv-x="502" 
d="M497 124h-221q0 -38 12.5 -64t31.5 -34.5t37 -8.5q36 0 55 15.5t27 56.5h17q-26 -89 -105 -89q-51 0 -84 42l-11 15q-8 6 -20 23l-17 -25l-10 -12q-30 -36 -60 -36q-34 0 -62 22l-10 9q-16 11 -25 13l-33 -51h-19l44 70l14 24t12 19l14 22l76 123h17l4 -6l5 -10l52 -99
q3 14 5 21t15 35.5t39 43.5t51 15q57 0 80 -35.5t28 -50.5t5 -32h36v-16zM422 140l-2 16q0 8 -4 16l-6 16l-18 28l-12 10q-15 9 -28 9q-32 0 -47.5 -23t-27.5 -68v-4h145zM229 93l-42 76l-30 55l-48 -81l-24 -38q0 -27 22 -52q14 -18 25 -22.5t17 -4.5l7 1l16 4q25 12 57 62
z" />
    <glyph glyph-name="oslash" unicode="&#xf8;" horiz-adv-x="260" 
d="M247 126q0 -53 -33 -90t-80 -37q-6 0 -15 1.5l-15 2.5l-3 -7h-38l10 24l-9 7q-30 28 -40 74l-3 25q0 45 33.5 88.5t79.5 43.5q11 0 17 -1t17 -4l2 4h40l-10 -23q23 -18 35 -49.5t12 -58.5zM159 229q-8 4 -25 6q-9 0 -14 -1.5t-14 -6.5l-12 -10q-33 -36 -33 -91
q0 -24 10 -53l13 -26zM208 126q0 46 -21 76l-75 -180q12 -5 22 -5q16 0 29 8l12 10q12 12 22.5 39.5t10.5 51.5z" />
    <glyph glyph-name="questiondown" unicode="&#xbf;" horiz-adv-x="255" 
d="M243 0h-38q-15 21 -23.5 55.5t-8.5 85.5v76l-26 -20l-24 -19l-21 -15l-8 -7v-255h-40v280q0 17 -15 19q-7 -1 -9 -2l-8 -2l-6 -1l-4 1l2 5q35 18 35 39l-1 7v5q4 5 6 6q12 0 26 -14.5t14 -32.5v-10l1 -8v-7v-8l96 70l13 10q0 -120 6.5 -168.5t32.5 -89.5z" />
    <glyph glyph-name="exclamdown" unicode="&#xa1;" horiz-adv-x="241" 
d="M230 172l-14 -10l-10 -6l-8 -5q0 12 -7.5 34.5t-17 30t-14.5 7.5q-14 -14 -71 -52v-271h-41v281q0 19 -14 19q-8 0 -22 -5l-3 1l1 5q30 12 36 39l-1 7v5l2 4l6 2q9 0 22.5 -15t13.5 -32v-20q60 43 89 67q22 0 51 -77z" />
    <glyph glyph-name="logicalnot" unicode="&#xac;" 
d="M191 316h-39l-67 80h70zM283 249l-1 -252q0 -21 -10.5 -38t-46 -37.5t-86.5 -20.5q-20 0 -38.5 7t-53 31t-34.5 48q0 8 6 10q5 -2 26 -33t77 -31h20q32 0 46 5q35 9 42.5 29t7.5 33v79l-24 -18l-84 -61q-20 0 -39.5 18t-32.5 48l-2 13v135q0 21 -16 21l-19 -3l-7 -2l-3 1
l1 6q38 18 38 44l-1 7v6q4 5 7 5q15 0 30.5 -17t15.5 -34v-144q6 -28 19.5 -46.5t28.5 -21.5l70 52l18 13v113q0 8 -6 13l-12 3l-19 -2h-7l-3 2l2 6q40 20 40 45l-1 7v6q4 5 7 5q16 0 30 -17l6 -8q6 -9 8 -25z" />
    <glyph glyph-name="florin" unicode="&#x192;" horiz-adv-x="291" 
d="M186 335h-50v50h50v-50zM278 105q-19 -65 -73 -91q-20 -8 -47 -13q-49 0 -80 28q-24 16 -38.5 51t-14.5 81t28.5 85t73.5 51l31 4q82 0 113 -69l4 -14l-7 -4l-8 -4q-8 -2 -16 -7l-9 -4l-6 -2l-1 17q0 11 -2 17l-2 16q-4 18 -15 29q-12 9 -45 14q-41 0 -67.5 -36
t-26.5 -85l1 -15v-20q0 -54 25 -83t69 -29q33 0 59 17q17 13 24.5 33t7.5 33h22z" />
    <glyph glyph-name="guillemotleft" unicode="&#xab;" horiz-adv-x="225" 
d="M190 47l-73 89v38l73 89v-50l-24 -58l24 -59v-49zM100 47l-73 89v38l73 89v-50l-24 -58l24 -59v-49z" />
    <glyph glyph-name="guillemotright" unicode="&#xbb;" horiz-adv-x="225" 
d="M207 136l-73 -89v49l24 59l-24 58v50l73 -89v-38zM108 136l-73 -89v49l24 59l-24 58v50l73 -89v-38z" />
    <glyph glyph-name="ellipsis" unicode="&#x2026;" horiz-adv-x="306" 
d="M297 0h-50v49h50v-49zM197 0h-50v49h50v-49zM97 0h-50v49h50v-49z" />
    <glyph glyph-name="nonbreakingspace" unicode="&#xa0;" 
 />
    <glyph glyph-name="Agrave" unicode="&#xc0;" horiz-adv-x="391" 
d="M251 316h-39l-67 80h70zM373 0h-42l-6 11l-6 10l-44 74q-20 -35 -47.5 -61t-54.5 -26q-42 0 -72 26l-10 10l-11 8q-6 6 -19 8l-39 -60h-22l51 81l15 25l12.5 21.5t19.5 29.5l16 26l72 117l21 1l18 -33l22 -40l59 -104l45 -85zM267 108l-36 66l-13 23l-35 65l-43 -74
l-13 -22l-26 -43q-2 -15 13 -47l10 -14q22 -31 49 -31q19 0 28.5 6t20 15t28.5 31z" />
    <glyph glyph-name="Atilde" unicode="&#xc3;" horiz-adv-x="391" 
d="M360 409l-2 -2l-15 -15l-8 -8l-10 -7l-40 -32q-31 -24 -57 -29h-12q-10 0 -25 7l-13 6l-13 7l-50 23q-8 4 -26 7q-19 0 -28 -5l-17 -10l-12 -7l-12 -8l-4 -3q-7 2 -7 4l2 2l3 4l3 3l2 3l3 3l3 3l51 36l27 18q12 5 26 7q15 0 40 -13l48 -25l21 -6h9l7 -1q25 0 49 9
q21 11 43 28l9 4l3 -1zM373 0h-42l-6 11l-6 10l-44 74q-20 -35 -47.5 -61t-54.5 -26q-42 0 -72 26l-10 10l-11 8q-6 6 -19 8l-39 -60h-22l51 81l15 25l12.5 21.5t19.5 29.5l16 26l72 117l21 1l18 -33l22 -40l59 -104l45 -85zM267 108l-36 66l-13 23l-35 65l-43 -74l-13 -22
l-26 -43q-2 -15 13 -47l10 -14q22 -31 49 -31q19 0 28.5 6t20 15t28.5 31z" />
    <glyph glyph-name="Otilde" unicode="&#xd5;" 
d="M360 409l-2 -2l-15 -15l-8 -8l-10 -7l-40 -32q-31 -24 -57 -29h-12q-10 0 -25 7l-13 6l-13 7l-50 23q-8 4 -26 7q-19 0 -28 -5l-17 -10l-12 -7l-12 -8l-4 -3q-7 2 -7 4l2 2l3 4l3 3l2 3l3 3l3 3l51 36l27 18q12 5 26 7q15 0 40 -13l48 -25l21 -6h9l7 -1q25 0 49 9
q21 11 43 28l9 4l3 -1zM283 146q0 -54 -27 -92q-26 -41 -78 -53l-26 -2q-55 0 -93 42.5t-38 104.5q0 44 17.5 73.5t31.5 43.5t34 24.5t48 10.5q53 0 92 -45t39 -107zM237 145q0 53 -28 90.5t-57 37.5q-41 0 -71 -57q-14 -39 -14 -71q0 -50 24 -85q25 -40 60 -40
q43 0 64.5 39t21.5 86z" />
    <glyph glyph-name="OE" unicode="&#x152;" horiz-adv-x="546" 
d="M541 145h-257q0 -63 27 -94q24 -31 66 -31q85 0 97 84h15h5q-15 -48 -42 -76t-81 -28q-36 0 -57.5 13t-32.5 24.5t-19 24.5l-6 -8q-26 -41 -78 -53l-26 -2q-55 0 -93 42.5t-38 104.5q0 44 17.5 73.5t31.5 43.5t34 24.5t48 10.5q53 0 92 -46l16 -21l9 15q34 55 99 55
q47 0 89.5 -42t42.5 -96l10 1h22l9 -1v-18zM453 163q0 58 -48 102q-12 8 -33 11q-64 0 -87 -108l-1 -5h169zM237 145q0 53 -28 90.5t-57 37.5q-41 0 -71 -57q-14 -39 -14 -71q0 -50 24 -85q25 -40 60 -40q43 0 64.5 39t21.5 86z" />
    <glyph glyph-name="oe" unicode="&#x153;" horiz-adv-x="472" 
d="M469 124h-221q0 -38 12.5 -64t31.5 -34.5t37 -8.5q36 0 55 15.5t27 56.5h17q-26 -89 -105 -89q-51 0 -84 42l-10 14l-15 -21q-33 -36 -80 -36q-39 0 -69.5 28t-40.5 74l-3 25q0 45 33.5 88.5t79.5 43.5q62 0 95 -61q17 33 41.5 47t49.5 14q57 0 80 -35.5t28 -50.5t5 -32
h36v-16zM394 140l-2 16q0 8 -4 16l-6 16l-18 28l-12 10q-15 9 -28 9q-32 0 -47.5 -23t-27.5 -68v-4h145zM208 126q0 68 -45 101q-12 6 -29 8q-9 0 -14 -1.5t-14 -6.5l-12 -10q-33 -36 -33 -91q0 -24 9.5 -49.5t22.5 -41.5q21 -18 41 -18q16 0 29 8l12 10q12 12 22.5 39.5
t10.5 51.5z" />
    <glyph glyph-name="endash" unicode="&#x2013;" horiz-adv-x="238" 
d="M224 114h-213v44h213v-44z" />
    <glyph glyph-name="emdash" unicode="&#x2014;" horiz-adv-x="386" 
d="M374 114h-363v44h363v-44z" />
    <glyph glyph-name="quotedblleft" unicode="&#x201c;" horiz-adv-x="195" 
d="M169 226h-50v50q0 53 39 70l11 -19q-6 -1 -10 -7l-4 -4l-8 -21l-1 -19h23v-50zM85 226h-50v50q0 53 39 70l11 -19q-6 -1 -10 -7l-4 -4l-8 -21l-1 -19h23v-50z" />
    <glyph glyph-name="quotedblright" unicode="&#x201d;" horiz-adv-x="195" 
d="M183 302q0 -53 -39 -70l-11 19q6 1 10 7l4 4l8 21l1 19h-23v50h50v-50zM99 302q0 -53 -39 -70l-11 19q6 1 10 7l4 4l8 21l1 19h-23v50h50v-50z" />
    <glyph glyph-name="quoteleft" unicode="&#x2018;" horiz-adv-x="103" 
d="M85 226h-50v50q0 53 39 70l11 -19q-6 -1 -10 -7l-4 -4l-8 -21l-1 -19h23v-50z" />
    <glyph glyph-name="quoteright" unicode="&#x2019;" horiz-adv-x="103" 
d="M99 302q0 -53 -39 -70l-11 19q6 1 10 7l4 4l8 21l1 19h-23v50h50v-50z" />
    <glyph glyph-name="divide" unicode="&#xf7;" horiz-adv-x="256" 
d="M168 299h-50v50h50v-50zM244 228h-80q-22 0 -41 -10t-38 -31.5t-24 -63.5q0 -39 12.5 -64t26.5 -31.5t20 -8t26 -3.5q63 0 77 73h18q-30 -89 -106 -89q-53 0 -79.5 34t-31.5 71l-2 21q0 67 61 101h-83v32l243 1z" />
    <glyph glyph-name="ydieresis" unicode="&#xff;" horiz-adv-x="258" 
d="M221 299h-50v50h50v-50zM106 299h-50v50h50v-50zM245 214l-1 -216q0 -14 -3.5 -24t-15.5 -25t-41.5 -31t-59.5 -16q-45 0 -84 45q-27 27 -27 43q0 7 5 8q3 -1 5.5 -3t6.5 -7l12 -18q36 -41 67 -41q35 0 62 14t31.5 30t4.5 27v68l-21 -15l-22 -17l-50 -36q-17 0 -41 23
q-22 25 -22 45v116q0 17 -15 19l-8 -2l-14 -3l-3 1l1 5q33 15 33 37v7l-1 5q4 4 6 5q15 0 27 -15q13 -13 13 -29v-124q15 -54 42 -59q8 7 30 23l45 33v97q0 9 -6 12l-9 2q-11 0 -17 -2h-6l-3 2l2 5q34 19 34 38v7v5q4 4 6 5q11 0 23 -14.5t14 -29.5z" />
    <glyph glyph-name="Ydieresis" unicode="&#x178;" horiz-adv-x="195" 
d="M178 299h-50v50h50v-50zM63 299h-50v50h50v-50z" />
    <glyph glyph-name="currency" unicode="&#xa4;" horiz-adv-x="296" 
d="M192 299h-50v50h50v-50zM282 125q0 -87 -78 -120q-10 -3 -17.5 -5t-17.5 -2q-38 0 -76 33t-38 94q0 19 7 41t22 46q6 5 8 12q-14 0 -38 -17l-37 -23l-11 -3l-2 4q0 6 5 9l6 4q19 13 19 26q0 11 -8 19l-6 4l-7 4l-5 9v6l4 3h5l6 -3l18 -7q9 -3 14 -4t23 -4h28l42 7
q35 0 60.5 -9t49.5 -37t24 -87zM243 125q0 18 -3 34.5t-17 46t-54 29.5q-28 0 -44.5 -24.5t-25.5 -55.5l-3 -30l4 -29l4 -19q9 -28 21.5 -44.5t42.5 -16.5q28 0 44 21.5t20.5 36.5t7.5 30.5t3 20.5z" />
    <glyph glyph-name="guilsinglleft" unicode="&#x2039;" horiz-adv-x="132" 
d="M100 47l-73 89v38l73 89v-50l-24 -58l24 -59v-49z" />
    <glyph glyph-name="guilsinglright" unicode="&#x203a;" horiz-adv-x="132" 
d="M108 136l-73 -89v49l24 59l-24 58v50l73 -89v-38z" />
    <glyph glyph-name="daggerdbl" unicode="&#x2021;" horiz-adv-x="451" 
d="M261 335h-50v50h50v-50zM430 0h-46v214q-3 34 -41 50q-10 -6 -40 -33l-35 -31v-106l1 -32l-1 -28v-34h-46v214q0 15 -7 26t-33 25l-31 -26l-8 -6l-39 -33l1 -14v-186h-46v213q0 25 -16 22l-14 -2l-12 -2l-4 1l2 5q38 21 38 45v8l-1 6q4 5 7 5q16 0 31 -18t15 -35v-21
l-1 -5q30 21 50.5 38.5t41.5 37.5l3 3l14 -4l13 -4q15 -4 27 -18q12 -10 15 -32v-20l85 69l8 7q60 -12 69 -57l-2 -24v-63v-132q0 -16 2 -23z" />
    <glyph glyph-name="periodcentered" unicode="&#xb7;" horiz-adv-x="386" 
d="M228 299h-50v50h50v-50zM368 0h-38v183q-3 30 -36 42l-5 -4l-7 -7l-10 -7l-9 -9l-11 -8l-23 -19v-15l1 -22v-26v-97l-1 -11h-38v183q-1 14 -8 24.5t-27 18.5l-10 -8l-30 -24l-7 -7l-19 -15v-74l1 -26v-25v-47h-40v183q0 18 -14 19l-8 -1l-8 -2l-6 -1l-3 1l1 5q21 9 29 20
l4 17l-1 7v5q4 4 6 5q9 0 21 -10l15 -20l4 -15v-14l-1 -4v-5l25 20l13 11l41 34l2 3l24 -5q13 -2 21.5 -11t12.5 -34v-17q38 22 81 65q27 -6 36 -13q18 -10 22 -35v-208z" />
    <glyph glyph-name="periodcentered" unicode="&#x2219;" horiz-adv-x="386" 
d="M228 299h-50v50h50v-50zM368 0h-38v183q-3 30 -36 42l-5 -4l-7 -7l-10 -7l-9 -9l-11 -8l-23 -19v-15l1 -22v-26v-97l-1 -11h-38v183q-1 14 -8 24.5t-27 18.5l-10 -8l-30 -24l-7 -7l-19 -15v-74l1 -26v-25v-47h-40v183q0 18 -14 19l-8 -1l-8 -2l-6 -1l-3 1l1 5q21 9 29 20
l4 17l-1 7v5q4 4 6 5q9 0 21 -10l15 -20l4 -15v-14l-1 -4v-5l25 20l13 11l41 34l2 3l24 -5q13 -2 21.5 -11t12.5 -34v-17q38 22 81 65q27 -6 36 -13q18 -10 22 -35v-208z" />
    <glyph glyph-name="quotesinglbase" unicode="&#x201a;" horiz-adv-x="344" 
d="M234 335h-50v50h50v-50zM328 148q0 -44 -22 -80.5t-59 -55.5q-29 -12 -47 -12q-55 0 -95 39t-40 103v21v75l1 27v24v40q0 14 -9 20l-8 1l-16 -3l-10 -2l-3 1l1 6q39 20 39 44l-1 8v6q4 5 7 5q19 0 31 -18q15 -14 15 -45v-24l-1 -12v-46l4 -1l21 17q25 14 70 14
q49 0 85.5 -46t36.5 -106zM283 145q0 42 -16 73.5t-37 47.5q-18 9 -34 9q-23 0 -44 -22q-20 -18 -26.5 -39t-9.5 -33.5t-3 -30.5q0 -59 22.5 -94t62.5 -35q26 4 55.5 39t29.5 85z" />
    <glyph glyph-name="quotedblbase" unicode="&#x201e;" horiz-adv-x="342" 
d="M222 335h-50v50h50v-50zM326 145q0 -52 -21.5 -86.5t-47.5 -44.5t-31 -11t-31 -5q-41 0 -86 37t-45 109q0 38 10 59t31 50l2 6l-4 1q-8 0 -21 -7l-11 -8l-12 -8q-28 -23 -51 -28l-3 5q6 7 10 11l18 16q7 9 7 19q0 15 -16 26l-6 4q-5 3 -8 10v7l5 3h5l28 -10q22 -6 44 -9
h31l48 6q78 0 116.5 -42t38.5 -110zM282 145q0 50 -30 96q-23 32 -56 32q-50 0 -75 -73l-9 -40v-15q0 -36 19.5 -81t62.5 -45q27 0 45.5 17.5t31.5 54.5z" />
    <glyph glyph-name="perthousand" unicode="&#x2030;" horiz-adv-x="324" 
d="M174 335h-50v50h50v-50zM309 147q0 -45 -24 -87t-60 -54l-17 -3q-10 -2 -18 1l-12 6l-10 2h-17l-13 -2q-8 0 -8 7l11 15q3 6 5 24l3 21l4 8l8 -24q9 -27 26 -38l14 -4q21 3 32.5 11t18.5 28.5t9 41.5t2 50q0 68 -20 99q-16 31 -51 31q-43 0 -66 -36q-20 -27 -24 -68v-18
v-226l-1 -31h-45v313q0 20 -17 20l-15 -3l-10 -2l-4 1l1 6q39 18 39 44v8l-1 6q4 5 8 5q25 0 41 -34l3 -18l1 -4v-8l21 28l12 10q31 25 60 25q49 0 81.5 -47t32.5 -104z" />
    <glyph glyph-name="Acircumflex" unicode="&#xc2;" horiz-adv-x="391" 
d="M299 322h-50l-58 24l-59 -24h-49l89 73h38zM373 0h-42l-6 11l-6 10l-44 74q-20 -35 -47.5 -61t-54.5 -26q-42 0 -72 26l-10 10l-11 8q-6 6 -19 8l-39 -60h-22l51 81l15 25l12.5 21.5t19.5 29.5l16 26l72 117l21 1l18 -33l22 -40l59 -104l45 -85zM267 108l-36 66l-13 23
l-35 65l-43 -74l-13 -22l-26 -43q-2 -15 13 -47l10 -14q22 -31 49 -31q19 0 28.5 6t20 15t28.5 31z" />
    <glyph glyph-name="Ecircumflex" unicode="&#xca;" horiz-adv-x="342" 
d="M260 322h-50l-58 24l-59 -24h-49l89 73h38zM326 145h-257q0 -63 27 -94q24 -31 66 -31q85 0 97 84h15h5q-15 -48 -42 -76t-81 -28q-36 0 -65.5 18.5t-48.5 51.5q-15 31 -20 76q0 28 8.5 53t33 63.5t89.5 38.5q47 0 89.5 -42t42.5 -96l10 1h22l9 -1v-18zM238 163
q0 58 -48 102q-12 8 -33 11q-64 0 -87 -108l-1 -5h169z" />
    <glyph glyph-name="Aacute" unicode="&#xc1;" horiz-adv-x="391" 
d="M251 396l-68 -80h-38l35 80h71zM373 0h-42l-6 11l-6 10l-44 74q-20 -35 -47.5 -61t-54.5 -26q-42 0 -72 26l-10 10l-11 8q-6 6 -19 8l-39 -60h-22l51 81l15 25l12.5 21.5t19.5 29.5l16 26l72 117l21 1l18 -33l22 -40l59 -104l45 -85zM267 108l-36 66l-13 23l-35 65
l-43 -74l-13 -22l-26 -43q-2 -15 13 -47l10 -14q22 -31 49 -31q19 0 28.5 6t20 15t28.5 31z" />
    <glyph glyph-name="Edieresis" unicode="&#xcb;" horiz-adv-x="342" 
d="M233 335h-50v50h50v-50zM118 335h-50v50h50v-50zM326 145h-257q0 -63 27 -94q24 -31 66 -31q85 0 97 84h15h5q-15 -48 -42 -76t-81 -28q-36 0 -65.5 18.5t-48.5 51.5q-15 31 -20 76q0 28 8.5 53t33 63.5t89.5 38.5q47 0 89.5 -42t42.5 -96l10 1h22l9 -1v-18zM238 163
q0 58 -48 102q-12 8 -33 11q-64 0 -87 -108l-1 -5h169z" />
    <glyph glyph-name="Egrave" unicode="&#xc8;" horiz-adv-x="342" 
d="M199 316h-38l-68 80h71zM326 145h-257q0 -63 27 -94q24 -31 66 -31q85 0 97 84h15h5q-15 -48 -42 -76t-81 -28q-36 0 -65.5 18.5t-48.5 51.5q-15 31 -20 76q0 28 8.5 53t33 63.5t89.5 38.5q47 0 89.5 -42t42.5 -96l10 1h22l9 -1v-18zM238 163q0 58 -48 102q-12 8 -33 11
q-64 0 -87 -108l-1 -5h169z" />
    <glyph glyph-name="Iacute" unicode="&#xcd;" horiz-adv-x="143" 
d="M137 395l-68 -80h-39l36 80h71zM119 0h-46v214q0 22 -17 22q-11 0 -24 -5l-3 1l1 5q38 18 38 45l-1 7l-1 6q4 5 8 5q17 0 31 -16.5t14 -38.5v-245z" />
    <glyph glyph-name="Icircumflex" unicode="&#xce;" horiz-adv-x="143" 
d="M188 322h-50l-58 24l-59 -24h-49l89 73h38zM119 0h-46v214q0 22 -17 22q-11 0 -24 -5l-3 1l1 5q38 18 38 45l-1 7l-1 6q4 5 8 5q17 0 31 -16.5t14 -38.5v-245z" />
    <glyph glyph-name="Idieresis" unicode="&#xcf;" horiz-adv-x="143" 
d="M161 335h-50v50h50v-50zM46 335h-50v50h50v-50zM119 0h-46v214q0 22 -17 22q-11 0 -24 -5l-3 1l1 5q38 18 38 45l-1 7l-1 6q4 5 8 5q17 0 31 -16.5t14 -38.5v-245z" />
    <glyph glyph-name="Igrave" unicode="&#xcc;" horiz-adv-x="124" 
d="M118 317h-39l-68 81h71zM119 0h-46v214q0 22 -17 22q-11 0 -24 -5l-3 1l1 5q38 18 38 45l-1 7l-1 6q4 5 8 5q17 0 31 -16.5t14 -38.5v-245z" />
    <glyph glyph-name="Oacute" unicode="&#xd3;" 
d="M213 396l-67 -80h-39l36 80h70zM283 146q0 -54 -27 -92q-26 -41 -78 -53l-26 -2q-55 0 -93 42.5t-38 104.5q0 44 17.5 73.5t31.5 43.5t34 24.5t48 10.5q53 0 92 -45t39 -107zM237 145q0 53 -28 90.5t-57 37.5q-41 0 -71 -57q-14 -39 -14 -71q0 -50 24 -85q25 -40 60 -40
q43 0 64.5 39t21.5 86z" />
    <glyph glyph-name="Ocircumflex" unicode="&#xd4;" 
d="M260 322h-50l-58 24l-59 -24h-49l89 73h38zM283 146q0 -54 -27 -92q-26 -41 -78 -53l-26 -2q-55 0 -93 42.5t-38 104.5q0 44 17.5 73.5t31.5 43.5t34 24.5t48 10.5q53 0 92 -45t39 -107zM237 145q0 53 -28 90.5t-57 37.5q-41 0 -71 -57q-14 -39 -14 -71q0 -50 24 -85
q25 -40 60 -40q43 0 64.5 39t21.5 86z" />
    <glyph glyph-name="Ograve" unicode="&#xd2;" 
d="M197 316h-38l-68 80h71zM283 146q0 -54 -27 -92q-26 -41 -78 -53l-26 -2q-55 0 -93 42.5t-38 104.5q0 44 17.5 73.5t31.5 43.5t34 24.5t48 10.5q53 0 92 -45t39 -107zM237 145q0 53 -28 90.5t-57 37.5q-41 0 -71 -57q-14 -39 -14 -71q0 -50 24 -85q25 -40 60 -40
q43 0 64.5 39t21.5 86z" />
    <glyph glyph-name="Uacute" unicode="&#xda;" 
d="M240 399l-67 -80h-39l35 80h71zM283 0h-45v80l-78 -58l-31 -22q-39 9 -66 54q-5 14 -7 26v135q0 24 -17 21l-9 -1l-9 -2l-7 -1l-4 1l1 5q38 20 38 44v8l-1 5q4 5 7 6q16 -2 31 -17.5t15 -33.5l1 -38v-35l-1 -35l1 -37q5 -25 19 -45t29 -23l70 52l18 13l-1 15v38l1 13v47
q0 16 -18 16q-13 0 -19 -2h-7l-4 2l2 6q40 23 40 45v7l-1 6q4 5 7 6l8 -2q15 -3 25.5 -18t11.5 -31v-250z" />
    <glyph glyph-name="Ucircumflex" unicode="&#xdb;" 
d="M260 322h-50l-58 24l-59 -24h-49l89 73h38zM283 0h-45v80l-78 -58l-31 -22q-39 9 -66 54q-5 14 -7 26v135q0 24 -17 21l-9 -1l-9 -2l-7 -1l-4 1l1 5q38 20 38 44v8l-1 5q4 5 7 6q16 -2 31 -17.5t15 -33.5l1 -38v-35l-1 -35l1 -37q5 -25 19 -45t29 -23l70 52l18 13l-1 15
v38l1 13v47q0 16 -18 16q-13 0 -19 -2h-7l-4 2l2 6q40 23 40 45v7l-1 6q4 5 7 6l8 -2q15 -3 25.5 -18t11.5 -31v-250z" />
    <glyph glyph-name="Ugrave" unicode="&#xd9;" 
d="M202 316h-39l-67 80h71zM283 0h-45v80l-78 -58l-31 -22q-39 9 -66 54q-5 14 -7 26v135q0 24 -17 21l-9 -1l-9 -2l-7 -1l-4 1l1 5q38 20 38 44v8l-1 5q4 5 7 6q16 -2 31 -17.5t15 -33.5l1 -38v-35l-1 -35l1 -37q5 -25 19 -45t29 -23l70 52l18 13l-1 15v38l1 13v47
q0 16 -18 16q-13 0 -19 -2h-7l-4 2l2 6q40 23 40 45v7l-1 6q4 5 7 6l8 -2q15 -3 25.5 -18t11.5 -31v-250z" />
    <glyph glyph-name="circumflex" unicode="&#x2c6;" horiz-adv-x="241" 
d="M230 175h-50l-58 150l-59 -150h-49l89 199h38z" />
    <glyph glyph-name="tilde" unicode="&#x2dc;" horiz-adv-x="377" 
d="M360 376l-2 -2l-15 -15l-8 -8l-10 -7l-40 -32q-31 -24 -57 -29h-12q-10 0 -25 7l-13 6l-13 7l-50 23q-8 4 -26 7q-19 0 -28 -5l-17 -10l-12 -7l-12 -8l-4 -3q-7 2 -7 4l2 2l3 4l3 3l2 3l3 3l3 3l51 36l27 18q12 5 26 7q15 0 40 -13l48 -25l21 -6h9l7 -1q25 0 49 9
q21 11 43 28l9 4l3 -1z" />
    <glyph glyph-name="macron" unicode="&#xaf;" 
d="M233 335h-50v50h50v-50zM118 335h-50v50h50v-50zM283 249l-1 -252q0 -21 -10.5 -38t-46 -37.5t-86.5 -20.5q-20 0 -38.5 7t-53 31t-34.5 48q0 8 6 10q5 -2 26 -33t77 -31h20q32 0 46 5q35 9 42.5 29t7.5 33v79l-24 -18l-84 -61q-20 0 -39.5 18t-32.5 48l-2 13v135
q0 21 -16 21l-19 -3l-7 -2l-3 1l1 6q38 18 38 44l-1 7v6q4 5 7 5q15 0 30.5 -17t15.5 -34v-144q6 -28 19.5 -46.5t28.5 -21.5l70 52l18 13v113q0 8 -6 13l-12 3l-19 -2h-7l-3 2l2 6q40 20 40 45l-1 7v6q4 5 7 5q16 0 30 -17l6 -8q6 -9 8 -25z" />
    <glyph glyph-name="macron" unicode="&#x2c9;" 
d="M233 335h-50v50h50v-50zM118 335h-50v50h50v-50zM283 249l-1 -252q0 -21 -10.5 -38t-46 -37.5t-86.5 -20.5q-20 0 -38.5 7t-53 31t-34.5 48q0 8 6 10q5 -2 26 -33t77 -31h20q32 0 46 5q35 9 42.5 29t7.5 33v79l-24 -18l-84 -61q-20 0 -39.5 18t-32.5 48l-2 13v135
q0 21 -16 21l-19 -3l-7 -2l-3 1l1 6q38 18 38 44l-1 7v6q4 5 7 5q15 0 30.5 -17t15.5 -34v-144q6 -28 19.5 -46.5t28.5 -21.5l70 52l18 13v113q0 8 -6 13l-12 3l-19 -2h-7l-3 2l2 6q40 20 40 45l-1 7v6q4 5 7 5q16 0 30 -17l6 -8q6 -9 8 -25z" />
    <glyph glyph-name="cedilla" unicode="&#xb8;" horiz-adv-x="418" 
d="M227 301h-33l-59 70h62zM399 0h-38v13l-1 10l1 10l-1 10l1 9v16q-4 -3 -18 -12.5t-27 -19.5l-48 -36q-13 0 -30 14l-10 10q-23 23 -23 45l-94 -69q-24 0 -42.5 26t-20.5 43v116q0 18 -14 18l-14 -2l-8 -2l-3 1l1 5q32 15 32 37v6l-1 5q4 4 6 5q12 0 24.5 -14t15.5 -30
v-124q18 -58 42 -58l75 55v97q0 18 -14 18l-11 -2l-11 -2l-3 1l1 5q33 15 33 37l-1 6v5q4 5 6 6q12 0 24 -13t15 -31v-124q10 -53 42 -59l20 15l21 15l35 26l-1 13v69l1 15q0 8 -16 14l-16 -2h-6l-3 2l1 5q35 18 35 38l-1 6v5q4 5 6 6q10 0 23.5 -14t13.5 -30z" />
    <glyph glyph-name="Scaron" unicode="&#x160;" horiz-adv-x="291" 
d="M177 335h-50v50h50v-50zM278 289q-10 -8 -22.5 -22.5t-16.5 -24.5v-15l2 -9v-10l-9 -8q-6 0 -6 16l-2 8q0 8 -5 18q0 6 -10 19l-8 8q-15 12 -42 15h-20q-67 -6 -67 -65q0 -38 55 -50l38 -3h22q20 0 34.5 -5t33.5 -20t19 -62q0 -35 -15 -55q-14 -15 -46 -23l-54 -2
q-30 0 -75 18l-13 6l-14 4q-11 -2 -27 -11l-22 -11h-5l-1 4l10 9l19 20q9 12 13 26v21q0 13 -5 26q1 3 3 4t3 2l9 -25q8 -29 32 -52t67 -23q33 0 53.5 20t20.5 51q0 10 -3 19.5t-21 22.5t-56 13q-58 0 -87.5 18t-29.5 54q0 43 36.5 61.5t64.5 21.5h25l53 -10h23q14 0 24 5
l15 4q5 -4 7 -8z" />
    <glyph glyph-name="scaron" unicode="&#x161;" horiz-adv-x="247" 
d="M168 299h-50v50h50v-50zM238 244q-15 -13 -22.5 -22t-10.5 -17l1 -13l1 -7v-10l-10 -8q-7 0 -7 16l-2 6q0 9 -3 14t-4.5 8t-4.5 8l-7 6q-7 5 -15.5 8.5t-18.5 3.5h-17q-55 0 -55 -52q0 -30 28.5 -36t48.5 -6h19q31 0 54 -16q22 -19 22 -59q0 -31 -12 -45.5t-42 -21.5
l-46 -2q-26 0 -65 15l-11 6l-11 3q-10 -3 -21 -9t-13.5 -7t-5.5 -3l-5 -1q-3 5 -3 8l8 8l16 15l5.5 8t5.5 14v17q0 14 -4 22q1 3 8 6l3.5 -7t7.5 -21.5t25 -35.5t55 -19q25 0 43 16t18 42q0 19 -18 31t-48 12q-49 0 -75.5 15.5t-26.5 47.5q0 38 29 52t38 16.5t21 2.5h22
l45 -8h19q11 0 20 4l13 3q7 -4 8 -8z" />
    <glyph glyph-name="brokenbar" unicode="&#xa6;" horiz-adv-x="90" 
d="M47 201v183h38v-183h-38zM47 -99v183h38v-183h-38z" />
    <glyph glyph-name="Eth" unicode="&#xd0;" horiz-adv-x="488" 
d="M359 322h-50l-58 24l-59 -24h-49l89 73h38zM465 -1l-45 1l-1 7v72l-108 -79q-18 0 -40 22.5t-30 44.5l-2 13q-32 -21 -110 -80q-39 9 -66 54q-5 14 -7 26v135q0 24 -17 21l-9 -1l-9 -2l-7 -1l-4 1l1 5q38 20 38 44v8l-1 5q4 5 7 6q16 -2 31 -17.5t15 -33.5l1 -38v-35
l-1 -35l1 -37q5 -25 19 -45t29 -23l87 65l1 56v56q0 22 -17 22l-9 -2l-9 -2l-7 -1l-4 1l1 5q38 20 38 45v7l-1 6q4 5 7 5q12 0 23 -9.5t15 -17.5t5.5 -12.5t2.5 -11.5v-145q7 -31 21 -49t28 -18l47 34q10 7 23.5 18t16.5 13v112q0 16 -18 16q-12 0 -19 -2h-7l-3 3l2 6
q40 20 40 44l-1 8v6q4 5 7 5q12 0 28.5 -18t16.5 -33v-250z" />
    <glyph glyph-name="eth" unicode="&#xf0;" horiz-adv-x="418" 
d="M320 298h-50l-58 24l-59 -24h-49l89 73h38zM399 0h-38v13l-1 10l1 10l-1 10l1 9v16q-4 -3 -18 -12.5t-27 -19.5l-48 -36q-13 0 -30 14l-10 10q-23 23 -23 45l-94 -69q-24 0 -42.5 26t-20.5 43v116q0 18 -14 18l-14 -2l-8 -2l-3 1l1 5q32 15 32 37v6l-1 5q4 4 6 5
q12 0 24.5 -14t15.5 -30v-124q18 -58 42 -58l75 55v97q0 18 -14 18l-11 -2l-11 -2l-3 1l1 5q33 15 33 37l-1 6v5q4 5 6 6q12 0 24 -13t15 -31v-124q10 -53 42 -59l20 15l21 15l35 26l-1 13v69l1 15q0 8 -16 14l-16 -2h-6l-3 2l1 5q35 18 35 38l-1 6v5q4 5 6 6q10 0 23.5 -14
t13.5 -30z" />
    <glyph glyph-name="Yacute" unicode="&#xdd;" 
d="M283 249l-1 -252q0 -21 -10.5 -38t-46 -37.5t-86.5 -20.5q-20 0 -38.5 7t-53 31t-34.5 48q0 8 6 10q5 -2 26 -33t77 -31h20q32 0 46 5q35 9 42.5 29t7.5 33v79l-24 -18l-84 -61q-20 0 -39.5 18t-32.5 48l-2 13v135q0 21 -16 21l-19 -3l-7 -2l-3 1l1 6q38 18 38 44l-1 7v6
q4 5 7 5q15 0 30.5 -17t15.5 -34v-144q6 -28 19.5 -46.5t28.5 -21.5l70 52l18 13v113q0 8 -6 13l-12 3l-19 -2h-7l-3 2l2 6q40 20 40 45l-1 7v6q4 5 7 5q16 0 30 -17l6 -8q6 -9 8 -25zM237 399l-67 -80h-39l35 80h71z" />
    <glyph glyph-name="yacute" unicode="&#xfd;" horiz-adv-x="258" 
d="M245 214l-1 -216q0 -14 -3.5 -24t-15.5 -25t-41.5 -31t-59.5 -16q-45 0 -84 45q-27 27 -27 43q0 7 5 8q3 -1 5.5 -3t6.5 -7l12 -18q36 -41 67 -41q35 0 62 14t31.5 30t4.5 27v68l-21 -15l-22 -17l-50 -36q-17 0 -41 23q-22 25 -22 45v116q0 17 -15 19l-8 -2l-14 -3l-3 1
l1 5q33 15 33 37v7l-1 5q4 4 6 5q15 0 27 -15q13 -13 13 -29v-124q15 -54 42 -59q8 7 30 23l45 33v97q0 9 -6 12l-9 2q-11 0 -17 -2h-6l-3 2l2 5q34 19 34 38v7v5q4 4 6 5q11 0 23 -14.5t14 -29.5zM187 370l-59 -70h-34l31 70h62z" />
    <glyph glyph-name="Thorn" unicode="&#xde;" 
d="M260 322h-50l-58 24l-59 -24h-49l89 73h38zM283 249l-1 -252q0 -21 -10.5 -38t-46 -37.5t-86.5 -20.5q-20 0 -38.5 7t-53 31t-34.5 48q0 8 6 10q5 -2 26 -33t77 -31h20q32 0 46 5q35 9 42.5 29t7.5 33v79l-24 -18l-84 -61q-20 0 -39.5 18t-32.5 48l-2 13v135q0 21 -16 21
l-19 -3l-7 -2l-3 1l1 6q38 18 38 44l-1 7v6q4 5 7 5q15 0 30.5 -17t15.5 -34v-144q6 -28 19.5 -46.5t28.5 -21.5l70 52l18 13v113q0 8 -6 13l-12 3l-19 -2h-7l-3 2l2 6q40 20 40 45l-1 7v6q4 5 7 5q16 0 30 -17l6 -8q6 -9 8 -25z" />
    <glyph glyph-name="thorn" unicode="&#xfe;" horiz-adv-x="258" 
d="M242 298h-50l-58 24l-59 -24h-49l89 73h38zM245 214l-1 -216q0 -14 -3.5 -24t-15.5 -25t-41.5 -31t-59.5 -16q-45 0 -84 45q-27 27 -27 43q0 7 5 8q3 -1 5.5 -3t6.5 -7l12 -18q36 -41 67 -41q35 0 62 14t31.5 30t4.5 27v68l-21 -15l-22 -17l-50 -36q-17 0 -41 23
q-22 25 -22 45v116q0 17 -15 19l-8 -2l-14 -3l-3 1l1 5q33 15 33 37v7l-1 5q4 4 6 5q15 0 27 -15q13 -13 13 -29v-124q15 -54 42 -59q8 7 30 23l45 33v97q0 9 -6 12l-9 2q-11 0 -17 -2h-6l-3 2l2 5q34 19 34 38v7v5q4 4 6 5q11 0 23 -14.5t14 -29.5z" />
    <glyph glyph-name="minus" unicode="&#x2212;" horiz-adv-x="169" 
d="M20 114v44h141v-44h-141z" />
    <glyph glyph-name="multiply" unicode="&#xd7;" horiz-adv-x="298" 
d="M168 335h-50v50h50v-50zM284 265h-94q-44 0 -74 -30t-42 -72l-3 -21q0 -28 7 -51.5t24 -47.5t67 -24q40 0 60.5 19.5t30.5 64.5h20q-33 -103 -123 -103q-112 0 -130 121l-2 25q0 76 72 118h-97v36l283 1z" />
    <glyph glyph-name="onesuperior" unicode="&#xb9;" horiz-adv-x="290" 
d="M168 299h-50v50h50v-50zM277 122q0 -44 -20.5 -76.5t-53.5 -44.5l-15 -1h-11l-12 4l-12 4l-28 -3q-7 0 -7 7q12 12 12 22l2 6l3 26l3 6q5 -7 8.5 -20t11.5 -25.5t24 -12.5q24 0 33 9.5t14 26t5 44.5l1 30q0 63 -15.5 89.5t-46.5 26.5q-39 0 -60.5 -36.5t-21.5 -72.5v-230
h-41v281q0 18 -15 18l-8 -1l-8 -2l-7 -1l-3 1l1 5q35 15 35 39l-1 6v6q4 4 7 5q12 0 25.5 -16t14.5 -30v-11l11 15l9 9q30 30 64 33q38 0 70 -41t32 -95z" />
    <glyph glyph-name="twosuperior" unicode="&#xb2;" horiz-adv-x="300" 
d="M204 299h-50v50h50v-50zM286 128q0 -22 -11.5 -51.5t-40.5 -53t-60 -23.5q-45 0 -71.5 26t-36 47t-9.5 50l1 18v144q0 11 -7 17l-7 1l-14 -2l-8 -2l-4 1l1 5q34 15 34 38v7l-1 5q4 5 7 5q11 0 24 -14.5t15 -31.5v-75v-6l14 7q10 8 20.5 11.5t24 6t23.5 2.5q38 0 72 -39.5
t34 -92.5zM246 125q0 49 -23 81q-20 32 -52 32q-11 0 -25 -9q-47 -25 -47 -99q0 -42 15 -72q16 -27 46 -38l12 -1q12 0 28.5 10.5t28.5 32t15 41.5z" />
    <glyph glyph-name="threesuperior" unicode="&#xb3;" horiz-adv-x="251" 
d="M168 299h-50v50h50v-50zM240 90q-24 -79 -101 -89q-52 0 -83.5 38t-31.5 99q0 43 30 81.5t84 38.5q65 0 91 -48l9 -24q-12 -3 -22.5 -8.5t-13 -7.5t-3.5 -2v18q-3 16 -4 25l-4 12q-14 24 -47 24q-49 0 -73 -58l-8 -44v-13q0 -53 17 -79q19 -34 65 -34q34 0 53 21t25 50
h17z" />
    <glyph glyph-name="onehalf" unicode="&#xbd;" horiz-adv-x="488" 
d="M329 335h-50v50h50v-50zM214 335h-50v50h50v-50zM465 -1l-45 1l-1 7v72l-108 -79q-18 0 -40 22.5t-30 44.5l-2 13q-32 -21 -110 -80q-39 9 -66 54q-5 14 -7 26v135q0 24 -17 21l-9 -1l-9 -2l-7 -1l-4 1l1 5q38 20 38 44v8l-1 5q4 5 7 6q16 -2 31 -17.5t15 -33.5l1 -38
v-35l-1 -35l1 -37q5 -25 19 -45t29 -23l87 65l1 56v56q0 22 -17 22l-9 -2l-9 -2l-7 -1l-4 1l1 5q38 20 38 45v7l-1 6q4 5 7 5q12 0 23 -9.5t15 -17.5t5.5 -12.5t2.5 -11.5v-145q7 -31 21 -49t28 -18l47 34q10 7 23.5 18t16.5 13v112q0 16 -18 16q-12 0 -19 -2h-7l-3 3l2 6
q40 20 40 44l-1 8v6q4 5 7 5q12 0 28.5 -18t16.5 -33v-250z" />
    <glyph glyph-name="onequarter" unicode="&#xbc;" horiz-adv-x="258" 
d="M164 301h-33l-59 70h62zM245 214l-1 -216q0 -14 -3.5 -24t-15.5 -25t-41.5 -31t-59.5 -16q-45 0 -84 45q-27 27 -27 43q0 7 5 8q3 -1 5.5 -3t6.5 -7l12 -18q36 -41 67 -41q35 0 62 14t31.5 30t4.5 27v68l-21 -15l-22 -17l-50 -36q-17 0 -41 23q-22 25 -22 45v116
q0 17 -15 19l-8 -2l-14 -3l-3 1l1 5q33 15 33 37v7l-1 5q4 4 6 5q15 0 27 -15q13 -13 13 -29v-124q15 -54 42 -59q8 7 30 23l45 33v97q0 9 -6 12l-9 2q-11 0 -17 -2h-6l-3 2l2 5q34 19 34 38v7v5q4 4 6 5q11 0 23 -14.5t14 -29.5z" />
    <glyph glyph-name="threequarters" unicode="&#xbe;" horiz-adv-x="418" 
d="M293 299h-50v50h50v-50zM178 299h-50v50h50v-50zM399 0h-38v13l-1 10l1 10l-1 10l1 9v16q-4 -3 -18 -12.5t-27 -19.5l-48 -36q-13 0 -30 14l-10 10q-23 23 -23 45l-94 -69q-24 0 -42.5 26t-20.5 43v116q0 18 -14 18l-14 -2l-8 -2l-3 1l1 5q32 15 32 37v6l-1 5q4 4 6 5
q12 0 24.5 -14t15.5 -30v-124q18 -58 42 -58l75 55v97q0 18 -14 18l-11 -2l-11 -2l-3 1l1 5q33 15 33 37l-1 6v5q4 5 6 6q12 0 24 -13t15 -31v-124q10 -53 42 -59l20 15l21 15l35 26l-1 13v69l1 15q0 8 -16 14l-16 -2h-6l-3 2l1 5q35 18 35 38l-1 6v5q4 5 6 6q10 0 23.5 -14
t13.5 -30z" />
  </font>
</defs>
</svg>
